<ttFont>
<head>
    <!-- Most of this table will be recalculated by the compiler -->
    <tableVersion value="1.0"/>
    <fontRevision value="1.0"/>
    <checkSumAdjustment value="0x2264c9b"/>
    <magicNumber value="0x5f0f3cf5"/>
    <flags value="00000000 00001011"/>
    <unitsPerEm value="1000"/>
    <created value="Tue Sep 26 14:40:25 2023"/>
    <modified value="Thu Sep 28 23:06:09 2023"/>
    <xMin value="20"/>
    <yMin value="24"/>
    <xMax value="980"/>
    <yMax value="747"/>
    <macStyle value="00000000 00000000"/>
    <lowestRecPPEM value="8"/>
    <fontDirectionHint value="2"/>
    <indexToLocFormat value="0"/>
    <glyphDataFormat value="0"/>
  </head>
          <CharString index="0">
            -17.33301 -4 -11.83301 -4.66699 -6.33301 -5.33301 -6.33301 -5.33301 -5.83301 -13.66699 -5.33301 -22 -5.33301 -22 -5 -37 -4.66699 -52 -2.66699 -29.33301 1 -26 4.66699 -22.66699 4.66699 -22.66699 6.16699 -17 7.66699 -11.33301 7.66699 -11.33301 8.83301 -9.33301 10 -7.33301 rrcurveto
            10 -7.33301 7.83301 -4.66699 5.66699 -2 5.66699 -2 4.16699 -1 2.66699 0 rrcurveto
            1 0 15 0 rlineto
            4.66699 0 7.33301 2.33301 10 4.66699 10 4.66699 8.33301 6.5 6.66699 8.33301 6.66699 8.33301 5.66699 13.5 4.66699 18.66699 4.66699 18.66699 1.33301 22.33301 -2 26 -4.66699 70 -12 53.16699 -19.33301 36.33301 -19.33301 36.33301 -21.33887 15.49902 -23.33301 -5.33301 rrcurveto
            return
          </CharString>
          <CharString index="1">
            35.33301 0 31.66699 -22 28 -44 28 -44 15.66699 -74 3.33301 -104 2 -65.33301 -11.33301 -52 -24.66699 -38.66699 -25.33301 -40 -34 -22 -42.66699 -4 -23.33301 -2 -21.66699 2.66699 -20 7.33301 -72 26.66699 -35 72 2 117.33301 rrcurveto
            0.66699 50 4.5 43.5 8.33301 37 8.33301 37 9.66699 28.16699 11 19.33301 11 19.33301 13.5 15.33301 16 11.33301 16 11.33301 14 7 12 2.66699 12 2.66699 13 1.33398 14 0 rrcurveto
            return
          </CharString>
          <CharString index="2">
            16 -4 rlineto
            11.33301 -2.66699 11.83301 -3.16699 12.33301 -3.66699 12.33301 -3.66699 7.5 -2.83301 2.66699 -2 2 -1.33301 1.33301 17 0.66699 35.33301 0.66699 35.33301 0 44.66699 -0.66699 54 -0.66699 54 -0.5 39.66699 -0.33301 25.33301 -0.33301 25.33301 -0.16699 20.66699 0 16 rrcurveto
            176 -360 rlineto
            4 -8 8.16699 -6.16699 12.33301 -4.33301 12.33301 -4.33301 13.83301 -2.16699 15.33301 0 15.33301 0 15 0.5 14.66699 1 14.66699 1 12.33301 1.16699 10 1.33301 rrcurveto
            14 2 rlineto
            0 -0.66699 2 26.5 4 53.66699 4 53.66699 5.16699 67.5 6.33301 81.33301 6.33301 81.33301 4.5 59.83301 2.66699 38.33301 2.66699 38.33301 2.33301 30.83301 2 23.33301 -93.33301 2.66699 -44 2 5.33301 1.33301 0.66699 0 0.5 -6 0.33301 -12 rrcurveto
            0.33301 -12 -0.16699 -16.5 -0.66699 -21 -0.66699 -21 -0.83301 -22.66699 -1 -24.33301 -1 -24.33301 -1.16699 -27 -1.33301 -29.66699 -1.33301 -29.66699 -1.16699 -26.33301 -1 -23 -1 -23 -1.16699 -23.66699 -1.33301 -24.33301 -1.33301 -24.33301 -1 -16.16699 -0.66699 -8 rrcurveto
            -0.66699 -8 -0.33301 -6.33301 0 -4.66699 rrcurveto
            -222 432 -88 -4 rlineto
            return
          </CharString>
        <CharString name=".notdef">
          endchar
        </CharString>
        <CharString name=".null">
          endchar
        </CharString>
        <CharString name="A">
          endchar
        </CharString>
        <CharString name="B">
          endchar
        </CharString>
        <CharString name="C">
          endchar
        </CharString>
        <CharString name="D">
          endchar
        </CharString>
        <CharString name="E">
          endchar
        </CharString>
        <CharString name="F">
          endchar
        </CharString>
        <CharString name="G">
          endchar
        </CharString>
        <CharString name="H">
          endchar
        </CharString>
        <CharString name="I">
          endchar
        </CharString>
        <CharString name="J">
          endchar
        </CharString>
        <CharString name="K">
          endchar
        </CharString>
        <CharString name="L">
          endchar
        </CharString>
        <CharString name="M">
          endchar
        </CharString>
        <CharString name="N">
          endchar
        </CharString>
        <CharString name="O">
          endchar
        </CharString>
        <CharString name="P">
          endchar
        </CharString>
        <CharString name="Q">
          endchar
        </CharString>
        <CharString name="R">
          endchar
        </CharString>
        <CharString name="S">
          endchar
        </CharString>
        <CharString name="T">
          endchar
        </CharString>
        <CharString name="U">
          endchar
        </CharString>
        <CharString name="V">
          endchar
        </CharString>
        <CharString name="W">
          endchar
        </CharString>
        <CharString name="X">
          endchar
        </CharString>
        <CharString name="Y">
          endchar
        </CharString>
        <CharString name="Z">
          endchar
        </CharString>
        <CharString name="a">
          endchar
        </CharString>
        <CharString name="b">
          endchar
        </CharString>
        <CharString name="braceleft">
          endchar
        </CharString>
        <CharString name="braceright">
          endchar
        </CharString>
        <CharString name="c">
          endchar
        </CharString>
        <CharString name="d">
          endchar
        </CharString>
        <CharString name="e">
          endchar
        </CharString>
        <CharString name="eight">
          endchar
        </CharString>
        <CharString name="equal">
          453.94043 432.25781 rmoveto
          -17.0752 -19.73926 18.36426 -6.29883 17.22754 19.91309 17.81055 20.58691 29.16211 63.12305 4.07812 36 rrcurveto
          0.05762 0.65625 rlineto
          0.42188 1.5 0 1.5586 -0.43652 1.56445 -1.3623 4.85742 -4.98047 2.75977 -4.97363 -1.42383 -5.70801 -1.63379 -0.66211 -5.70215 -0.10449 -0.92871 -3.79199 -33.57129 -30.90137 -63.42188 -17.12598 -19.7998 rrcurveto
          -52.5957 -38.03711 rmoveto
          50.9414 13.74023 60.36328 4.20117 25.46777 -0.1543 23.96777 -0.14453 4.14258 4.01953 0.05762 4.9541 0.0586 5.00684 -4.13672 4.01855 -5.10352 0.0586 rrcurveto
          -0.05762 hlineto
          -46.37695 0.29883 -43.25977 -0.59766 -42.30566 -18.7002 -24.47852 -10.81934 0.71973 -5.88184 0 0 rrcurveto
          -251.69531 -251.94336 rmoveto
          0 0 2.81934 -6.53906 8.21973 -7.79883 0 0 81.24121 78.24121 4.98047 20.87695 rrcurveto
          1.91602 8.28516 rlineto
          6.96094 30.05762 16.20117 70.31934 37.87988 62.47559 23.19824 38.26367 32.10352 36.59766 15.64844 17.85645 16.26758 18.56543 5.64258 6.48145 3.34473 3.9541 38.83594 45.90332 13.13672 40.98145 6.42285 19.93945 4.97852 15.46289 2.33789 7.14258 1.3711 2.95801 4.6875 10.12012 12.84277 3.18164 10.04883 -1.61816 rrcurveto
          3.75 -0.60254 11.87695 -2.64258 1.13574 -9.40039 0.66895 -5.54102 4.43457 -3.48145 4.9209 0.56836 4.98242 0.5752 3.53906 4.5 -0.91016 7.57227 -1.4873 12.34961 -12.18066 11.03906 -17.41113 2.77539 -16.84863 2.68555 -21.42188 -5.10352 -8.74023 -18.93555 -2.0586 -4.45996 -2.46094 -7.62305 -3.96973 -12.3877 rrcurveto
          -7.12695 -22.22852 -12.53906 -38.94238 -36.74316 -43.43164 -3.10059 -3.66504 -5.57812 -6.42188 -13.61914 -15.52344 -17.28418 -19.69824 -34.01855 -38.87695 -24.2793 -40.07812 -39.0791 -64.50586 -16.68066 -72.29883 -7.14258 -30.83789 rrcurveto
          -1.91602 -8.10254 rlineto
          -3.18066 -13.25977 -40.20117 -41.52344 -36.41602 -34.20117 rrcurveto
          415.71973 202.50977 rmoveto
          5.3584 -22.26465 9 -9.65723 3.56738 -2.86523 4.95215 -3.97754 3.0586 2.21973 -4.45996 15.07031 -6.33887 21.41113 -5.16211 42.7793 -7.03809 47.46191 -1.2998 8.75879 -3.18164 21.18066 -4.04297 12.76172 -3.27539 10.33594 -5.64258 10.5 -2.24023 4.1709 -14.13672 26.3086 -11.75879 21.96094 -5.25586 44.1289 rrcurveto
          -1.34766 11.31348 -1.43555 17.09668 8.05957 10.48438 4.71973 6.13965 7.85742 3.71387 6.36426 -1.28125 7.01855 -1.41406 3.18164 -7.08398 1.43457 -5.63672 rrcurveto
          0.42188 -1.25879 rlineto
          0.48145 -1.01953 10.31836 -24.30469 6.58105 -12.62402 4.52246 -8.67383 5.39746 -8.2207 3.85059 -5.94043 11.51172 -17.75488 11.87695 -17.40332 8.95312 -18.47656 22.00781 -45.4248 17.57812 -79.25977 1.86523 -8.84961 4.07715 -19.34473 4.20117 -0.06543 1.36816 5.62012 0.85156 3.50293 1.01953 10.91602 -2.12012 22.38574 rrcurveto
          -4.72363 49.85547 -13.67578 36.84277 -15.60352 30.38672 -10.61621 20.67188 -11.70117 18.0586 -8.78027 13.51465 -6.57812 10.12695 -5.16211 7.92188 -4.13086 7.92871 -5.58984 10.72656 -9.29785 21.48145 -2.21289 7.3164 -3.30664 10.92383 -9.18164 9.7207 -12.16309 2.48047 -13.15527 2.68164 -14.70117 -6.18164 -9.19043 -11.97559 rrcurveto
          -11.99219 -15.62695 1.44238 -20.21484 1.74902 -14.77539 5.75098 -48.58887 13.20117 -24.59668 8.12598 -15.06543 8.31543 -15.41602 4.98145 -9.36328 2.7373 -8.59668 3.67871 -11.5586 3.24023 -21.53906 0.97363 -6.48633 6.64941 -44.33789 5.03516 -30.59863 3.16211 -13.13672 rrcurveto
          160.54785 49.67969 rmoveto
          1.29395 -7.37988 0.18164 -1.5 1.44824 2.95898 4.12988 8.43652 0.65625 16.5586 -1.46582 17.13379 -2.6123 30.50879 -11.2793 54.96094 -7.25977 27.89648 rrcurveto
          -0.48145 1.86328 rlineto
          -5.63574 21.59766 -18.48145 24.29883 -17.87012 16.16992 -19.99316 18.08984 -40.98145 46.56445 -9 15.59766 rrcurveto
          -2.81836 4.98047 rlineto
          -10.38281 18.3584 -13.01855 22.80371 -23.71484 -5.31738 -10.54492 -2.36426 -9.17578 -7.14258 -6.31738 -10.56445 -9.46777 -15.83203 -1.61719 -21.12305 4.40137 -15.70703 3.28027 -11.70898 4.98145 -2.8252 4.80957 1.35449 4.78809 1.34668 2.81836 4.98145 -2.91406 10.32715 -3.38477 11.99121 1.01953 16.56543 6.75586 11.38574 rrcurveto
          3.74414 6.3086 5.16211 4.14258 5.00977 1.12207 10.5293 2.3584 7.4414 -11.51855 10.13672 -17.88281 rrcurveto
          2.9414 -5.09766 rlineto
          10.86426 -18.84375 42.83789 -47.81836 19.23828 -17.41797 16.8789 -15.2832 15.7793 -21.24023 4.5 -17.21484 rrcurveto
          0.48047 -1.86426 rlineto
          14.10352 -43.98047 15.05762 -83.09668 3.14746 -17.93848 rrcurveto
          -342.45508 -343.88086 rmoveto
          -21.4707 -22.7207 22.20117 -3.06445 0 0 30.65723 30.66211 29.46094 20.03906 29.10254 10.08398 rrcurveto
          6.53906 2.2793 rlineto
          37.74023 12.89648 78.54004 26.88281 77.90527 70.46484 19.53613 17.6709 35.33789 34.74121 15.48828 48.15039 17.6289 54.80957 6.78516 118.44238 0.0332 49.71875 0.02637 39.44336 -4.20117 30.53906 -27.46387 22.88477 -13.5752 11.30957 -48.60449 47.10449 -9.95312 9.84668 -17.28125 17.09375 -17.76562 20.51953 -7.71973 8.07617 rrcurveto
          -14.3584 15.02148 -9.83789 3.60352 -10.43848 -0.95996 -12.4248 -1.14355 -11.45508 -7.4414 -5.60645 -8.64844 -4.77734 -7.3711 1.20117 -5.5791 4.22656 -2.68555 4.16895 -2.65137 5.58398 1.13574 3.89941 6.04199 3.41992 5.30176 6.59668 4.43555 6.86523 0.63379 3.51758 0.32617 5.03906 -0.53906 11.91211 -12.4541 rrcurveto
          7.88672 -8.24707 18.90332 -21.83789 0.18066 -0.24023 rrcurveto
          0.53906 -0.53906 rlineto
          2.94238 -2.88281 69.35742 -67.68066 15.26562 -12.70898 22.35059 -18.61035 3.66211 -24.35742 -0.02441 -36.66992 -0.03418 -48.58984 -6.53906 -116.03906 -16.76562 -52.00781 -14.43457 -44.77734 -33.42188 -32.69531 -18.27148 -16.52734 -74.6709 -67.53809 -73.31836 -25.13672 -39.42188 -13.5 rrcurveto
          -6.65625 -2.2793 rlineto
          -34.68164 -12 -34.79785 -24.6582 -14.5293 -15.37695 rrcurveto
          -27.99414 193.51074 rmoveto
          -12.0166 -21.89844 -3.42188 -15.18066 1.33105 -3.13672 1.85059 -4.36328 10.5 20.21973 8.46387 13.5918 40.7373 65.42773 71.63672 37.25977 58.91602 4.71191 44.58398 3.56738 -1.44238 17.9414 -47.35156 -3.78906 -65.8623 -5.26855 -70.3252 -40.5586 -37.59961 -68.52441 rrcurveto
          endchar
        </CharString>
        <CharString name="exclam">
          endchar
        </CharString>
        <CharString name="f">
          endchar
        </CharString>
        <CharString name="five">
          endchar
        </CharString>
        <CharString name="four">
          endchar
        </CharString>
        <CharString name="g">
          endchar
        </CharString>
        <CharString name="h">
          endchar
        </CharString>
        <CharString name="i">
          endchar
        </CharString>
        <CharString name="j">
          endchar
        </CharString>
        <CharString name="k">
          endchar
        </CharString>
        <CharString name="l">
          endchar
        </CharString>
        <CharString name="m">
          endchar
        </CharString>
        <CharString name="n">
          endchar
        </CharString>
        <CharString name="nine">
          endchar
        </CharString>
        <CharString name="nonmarkingreturn">
          endchar
        </CharString>
        <CharString name="o">
          endchar
        </CharString>
        <CharString name="one">
          endchar
        </CharString>
        <CharString name="p">
          endchar
        </CharString>
        <CharString name="q">
          endchar
        </CharString>
        <CharString name="question">
          endchar
        </CharString>
        <CharString name="r">
          endchar
        </CharString>
        <CharString name="s">
          endchar
        </CharString>
        <CharString name="s0000">
          732 530 rmoveto
          -107 callsubr
          14.00586 110.00098 rmoveto
          -106 callsubr
          -668 -498.00098 rmoveto
          -105 callsubr
          endchar
        </CharString>
        <CharString name="s0001">
          732 530 rmoveto
          -107 callsubr
          14.00586 110.00098 rmoveto
          -106 callsubr
          -668 -498.00098 rmoveto
          -105 callsubr
          endchar
        </CharString>
        <CharString name="s0002">
          732 530 rmoveto
          -107 callsubr
          14.00586 110.00098 rmoveto
          -106 callsubr
          -668 -498.00098 rmoveto
          -105 callsubr
          endchar
        </CharString>
        <CharString name="s0003">
          732 530 rmoveto
          -107 callsubr
          14.00586 110.00098 rmoveto
          -106 callsubr
          -668 -498.00098 rmoveto
          -105 callsubr
          endchar
        </CharString>
        <CharString name="s0004">
          732 530 rmoveto
          -107 callsubr
          14.00586 110.00098 rmoveto
          -106 callsubr
          -668 -498.00098 rmoveto
          -105 callsubr
          endchar
        </CharString>
        <CharString name="s0005">
          732 530 rmoveto
          -107 callsubr
          14.00586 110.00098 rmoveto
          -106 callsubr
          -668 -498.00098 rmoveto
          -105 callsubr
          endchar
        </CharString>
        <CharString name="s0006">
          732 530 rmoveto
          -107 callsubr
          14.00586 110.00098 rmoveto
          -106 callsubr
          -668 -498.00098 rmoveto
          -105 callsubr
          endchar
        </CharString>
        <CharString name="s0007">
          732 530 rmoveto
          -107 callsubr
          14.00586 110.00098 rmoveto
          -106 callsubr
          -668 -498.00098 rmoveto
          -105 callsubr
          endchar
        </CharString>
        <CharString name="s0008">
          732 530 rmoveto
          -107 callsubr
          14.00586 110.00098 rmoveto
          -106 callsubr
          -668 -498.00098 rmoveto
          -105 callsubr
          endchar
        </CharString>
        <CharString name="s0009">
          732 530 rmoveto
          -107 callsubr
          14.00586 110.00098 rmoveto
          -106 callsubr
          -668 -498.00098 rmoveto
          -105 callsubr
          endchar
        </CharString>
        <CharString name="s0010">
          732 530 rmoveto
          -107 callsubr
          14.00586 110.00098 rmoveto
          -106 callsubr
          -668 -498.00098 rmoveto
          -105 callsubr
          endchar
        </CharString>
        <CharString name="s0011">
          732 530 rmoveto
          -107 callsubr
          14.00586 110.00098 rmoveto
          -106 callsubr
          -668 -498.00098 rmoveto
          -105 callsubr
          endchar
        </CharString>
        <CharString name="s0012">
          732 530 rmoveto
          -107 callsubr
          14.00586 110.00098 rmoveto
          -106 callsubr
          -668 -498.00098 rmoveto
          -105 callsubr
          endchar
        </CharString>
        <CharString name="s0013">
          732 530 rmoveto
          -107 callsubr
          14.00586 110.00098 rmoveto
          -106 callsubr
          -668 -498.00098 rmoveto
          -105 callsubr
          endchar
        </CharString>
        <CharString name="s0014">
          732 530 rmoveto
          -107 callsubr
          14.00586 110.00098 rmoveto
          -106 callsubr
          -668 -498.00098 rmoveto
          -105 callsubr
          endchar
        </CharString>
        <CharString name="s0015">
          732 530 rmoveto
          -107 callsubr
          14.00586 110.00098 rmoveto
          -106 callsubr
          -668 -498.00098 rmoveto
          -105 callsubr
          endchar
        </CharString>
        <CharString name="s0016">
          732 530 rmoveto
          -107 callsubr
          14.00586 110.00098 rmoveto
          -106 callsubr
          -668 -498.00098 rmoveto
          -105 callsubr
          endchar
        </CharString>
        <CharString name="s0017">
          732 530 rmoveto
          -107 callsubr
          14.00586 110.00098 rmoveto
          -106 callsubr
          -668 -498.00098 rmoveto
          -105 callsubr
          endchar
        </CharString>
        <CharString name="s0018">
          732 530 rmoveto
          -107 callsubr
          14.00586 110.00098 rmoveto
          -106 callsubr
          -668 -498.00098 rmoveto
          -105 callsubr
          endchar
        </CharString>
        <CharString name="s0019">
          732 530 rmoveto
          -107 callsubr
          14.00586 110.00098 rmoveto
          -106 callsubr
          -668 -498.00098 rmoveto
          -105 callsubr
          endchar
        </CharString>
        <CharString name="s0020">
          732 530 rmoveto
          -107 callsubr
          14.00586 110.00098 rmoveto
          -106 callsubr
          -668 -498.00098 rmoveto
          -105 callsubr
          endchar
        </CharString>
        <CharString name="s0021">
          732 530 rmoveto
          -107 callsubr
          14.00586 110.00098 rmoveto
          -106 callsubr
          -668 -498.00098 rmoveto
          -105 callsubr
          endchar
        </CharString>
        <CharString name="s0022">
          732 530 rmoveto
          -107 callsubr
          14.00586 110.00098 rmoveto
          -106 callsubr
          -668 -498.00098 rmoveto
          -105 callsubr
          endchar
        </CharString>
        <CharString name="s0023">
          732 530 rmoveto
          -107 callsubr
          14.00586 110.00098 rmoveto
          -106 callsubr
          -668 -498.00098 rmoveto
          -105 callsubr
          endchar
        </CharString>
        <CharString name="s0024">
          732 530 rmoveto
          -107 callsubr
          14.00586 110.00098 rmoveto
          -106 callsubr
          -668 -498.00098 rmoveto
          -105 callsubr
          endchar
        </CharString>
        <CharString name="s0025">
          732 530 rmoveto
          -107 callsubr
          14.00586 110.00098 rmoveto
          -106 callsubr
          -668 -498.00098 rmoveto
          -105 callsubr
          endchar
        </CharString>
        <CharString name="s0026">
          732 530 rmoveto
          -107 callsubr
          14.00586 110.00098 rmoveto
          -106 callsubr
          -668 -498.00098 rmoveto
          -105 callsubr
          endchar
        </CharString>
        <CharString name="s0027">
          732 530 rmoveto
          -107 callsubr
          14.00586 110.00098 rmoveto
          -106 callsubr
          -668 -498.00098 rmoveto
          -105 callsubr
          endchar
        </CharString>
        <CharString name="s0028">
          732 530 rmoveto
          -107 callsubr
          14.00586 110.00098 rmoveto
          -106 callsubr
          -668 -498.00098 rmoveto
          -105 callsubr
          endchar
        </CharString>
        <CharString name="s0029">
          732 530 rmoveto
          -107 callsubr
          14.00586 110.00098 rmoveto
          -106 callsubr
          -668 -498.00098 rmoveto
          -105 callsubr
          endchar
        </CharString>
        <CharString name="s0030">
          732 530 rmoveto
          -107 callsubr
          14.00586 110.00098 rmoveto
          -106 callsubr
          -668 -498.00098 rmoveto
          -105 callsubr
          endchar
        </CharString>
        <CharString name="s0031">
          732 530 rmoveto
          -107 callsubr
          14.00586 110.00098 rmoveto
          -106 callsubr
          -668 -498.00098 rmoveto
          -105 callsubr
          endchar
        </CharString>
        <CharString name="s0032">
          732 530 rmoveto
          -107 callsubr
          14.00586 110.00098 rmoveto
          -106 callsubr
          -668 -498.00098 rmoveto
          -105 callsubr
          endchar
        </CharString>
        <CharString name="s0033">
          732 530 rmoveto
          -107 callsubr
          14.00586 110.00098 rmoveto
          -106 callsubr
          -668 -498.00098 rmoveto
          -105 callsubr
          endchar
        </CharString>
        <CharString name="s0034">
          732 530 rmoveto
          -107 callsubr
          14.00586 110.00098 rmoveto
          -106 callsubr
          -668 -498.00098 rmoveto
          -105 callsubr
          endchar
        </CharString>
        <CharString name="s0035">
          732 530 rmoveto
          -107 callsubr
          14.00586 110.00098 rmoveto
          -106 callsubr
          -668 -498.00098 rmoveto
          -105 callsubr
          endchar
        </CharString>
        <CharString name="s0036">
          732 530 rmoveto
          -107 callsubr
          14.00586 110.00098 rmoveto
          -106 callsubr
          -668 -498.00098 rmoveto
          -105 callsubr
          endchar
        </CharString>
        <CharString name="s0037">
          732 530 rmoveto
          -107 callsubr
          14.00586 110.00098 rmoveto
          -106 callsubr
          -668 -498.00098 rmoveto
          -105 callsubr
          endchar
        </CharString>
        <CharString name="s0038">
          732 530 rmoveto
          -107 callsubr
          14.00586 110.00098 rmoveto
          -106 callsubr
          -668 -498.00098 rmoveto
          -105 callsubr
          endchar
        </CharString>
        <CharString name="s0039">
          732 530 rmoveto
          -107 callsubr
          14.00586 110.00098 rmoveto
          -106 callsubr
          -668 -498.00098 rmoveto
          -105 callsubr
          endchar
        </CharString>
        <CharString name="s0040">
          732 530 rmoveto
          -107 callsubr
          14.00586 110.00098 rmoveto
          -106 callsubr
          -668 -498.00098 rmoveto
          -105 callsubr
          endchar
        </CharString>
        <CharString name="s0041">
          732 530 rmoveto
          -107 callsubr
          14.00586 110.00098 rmoveto
          -106 callsubr
          -668 -498.00098 rmoveto
          -105 callsubr
          endchar
        </CharString>
        <CharString name="s0042">
          732 530 rmoveto
          -107 callsubr
          14.00586 110.00098 rmoveto
          -106 callsubr
          -668 -498.00098 rmoveto
          -105 callsubr
          endchar
        </CharString>
        <CharString name="s0043">
          732 530 rmoveto
          -107 callsubr
          14.00586 110.00098 rmoveto
          -106 callsubr
          -668 -498.00098 rmoveto
          -105 callsubr
          endchar
        </CharString>
        <CharString name="s0044">
          732 530 rmoveto
          -107 callsubr
          14.00586 110.00098 rmoveto
          -106 callsubr
          -668 -498.00098 rmoveto
          -105 callsubr
          endchar
        </CharString>
        <CharString name="s0045">
          732 530 rmoveto
          -107 callsubr
          14.00586 110.00098 rmoveto
          -106 callsubr
          -668 -498.00098 rmoveto
          -105 callsubr
          endchar
        </CharString>
        <CharString name="s0046">
          732 530 rmoveto
          -107 callsubr
          14.00586 110.00098 rmoveto
          -106 callsubr
          -668 -498.00098 rmoveto
          -105 callsubr
          endchar
        </CharString>
        <CharString name="s0047">
          732 530 rmoveto
          -107 callsubr
          14.00586 110.00098 rmoveto
          -106 callsubr
          -668 -498.00098 rmoveto
          -105 callsubr
          endchar
        </CharString>
        <CharString name="s0048">
          732 530 rmoveto
          -107 callsubr
          14.00586 110.00098 rmoveto
          -106 callsubr
          -668 -498.00098 rmoveto
          -105 callsubr
          endchar
        </CharString>
        <CharString name="s0049">
          732 530 rmoveto
          -107 callsubr
          14.00586 110.00098 rmoveto
          -106 callsubr
          -668 -498.00098 rmoveto
          -105 callsubr
          endchar
        </CharString>
        <CharString name="s0050">
          732 530 rmoveto
          -107 callsubr
          14.00586 110.00098 rmoveto
          -106 callsubr
          -668 -498.00098 rmoveto
          -105 callsubr
          endchar
        </CharString>
        <CharString name="s0051">
          732 530 rmoveto
          -107 callsubr
          14.00586 110.00098 rmoveto
          -106 callsubr
          -668 -498.00098 rmoveto
          -105 callsubr
          endchar
        </CharString>
        <CharString name="s0052">
          732 530 rmoveto
          -107 callsubr
          14.00586 110.00098 rmoveto
          -106 callsubr
          -668 -498.00098 rmoveto
          -105 callsubr
          endchar
        </CharString>
        <CharString name="s0053">
          732 530 rmoveto
          -107 callsubr
          14.00586 110.00098 rmoveto
          -106 callsubr
          -668 -498.00098 rmoveto
          -105 callsubr
          endchar
        </CharString>
        <CharString name="s0054">
          732 530 rmoveto
          -107 callsubr
          14.00586 110.00098 rmoveto
          -106 callsubr
          -668 -498.00098 rmoveto
          -105 callsubr
          endchar
        </CharString>
        <CharString name="s0055">
          732 530 rmoveto
          -107 callsubr
          14.00586 110.00098 rmoveto
          -106 callsubr
          -668 -498.00098 rmoveto
          -105 callsubr
          endchar
        </CharString>
        <CharString name="s0056">
          732 530 rmoveto
          -107 callsubr
          14.00586 110.00098 rmoveto
          -106 callsubr
          -668 -498.00098 rmoveto
          -105 callsubr
          endchar
        </CharString>
        <CharString name="s0057">
          732 530 rmoveto
          -107 callsubr
          14.00586 110.00098 rmoveto
          -106 callsubr
          -668 -498.00098 rmoveto
          -105 callsubr
          endchar
        </CharString>
        <CharString name="s0058">
          732 530 rmoveto
          -107 callsubr
          14.00586 110.00098 rmoveto
          -106 callsubr
          -668 -498.00098 rmoveto
          -105 callsubr
          endchar
        </CharString>
        <CharString name="s0059">
          732 530 rmoveto
          -107 callsubr
          14.00586 110.00098 rmoveto
          -106 callsubr
          -668 -498.00098 rmoveto
          -105 callsubr
          endchar
        </CharString>
        <CharString name="s0060">
          732 530 rmoveto
          -107 callsubr
          14.00586 110.00098 rmoveto
          -106 callsubr
          -668 -498.00098 rmoveto
          -105 callsubr
          endchar
        </CharString>
        <CharString name="s0061">
          732 530 rmoveto
          -107 callsubr
          14.00586 110.00098 rmoveto
          -106 callsubr
          -668 -498.00098 rmoveto
          -105 callsubr
          endchar
        </CharString>
        <CharString name="s0062">
          732 530 rmoveto
          -107 callsubr
          14.00586 110.00098 rmoveto
          -106 callsubr
          -668 -498.00098 rmoveto
          -105 callsubr
          endchar
        </CharString>
        <CharString name="s0063">
          732 530 rmoveto
          -107 callsubr
          14.00586 110.00098 rmoveto
          -106 callsubr
          -668 -498.00098 rmoveto
          -105 callsubr
          endchar
        </CharString>
        <CharString name="s0064">
          732 530 rmoveto
          -107 callsubr
          14.00586 110.00098 rmoveto
          -106 callsubr
          -668 -498.00098 rmoveto
          -105 callsubr
          endchar
        </CharString>
        <CharString name="s0065">
          732 530 rmoveto
          -107 callsubr
          14.00586 110.00098 rmoveto
          -106 callsubr
          -668 -498.00098 rmoveto
          -105 callsubr
          endchar
        </CharString>
        <CharString name="s0066">
          732 530 rmoveto
          -107 callsubr
          14.00586 110.00098 rmoveto
          -106 callsubr
          -668 -498.00098 rmoveto
          -105 callsubr
          endchar
        </CharString>
        <CharString name="s0067">
          732 530 rmoveto
          -107 callsubr
          14.00586 110.00098 rmoveto
          -106 callsubr
          -668 -498.00098 rmoveto
          -105 callsubr
          endchar
        </CharString>
        <CharString name="s0068">
          732 530 rmoveto
          -107 callsubr
          14.00586 110.00098 rmoveto
          -106 callsubr
          -668 -498.00098 rmoveto
          -105 callsubr
          endchar
        </CharString>
        <CharString name="s0069">
          732 530 rmoveto
          -107 callsubr
          14.00586 110.00098 rmoveto
          -106 callsubr
          -668 -498.00098 rmoveto
          -105 callsubr
          endchar
        </CharString>
        <CharString name="s0070">
          732 530 rmoveto
          -107 callsubr
          14.00586 110.00098 rmoveto
          -106 callsubr
          -668 -498.00098 rmoveto
          -105 callsubr
          endchar
        </CharString>
        <CharString name="s0071">
          732 530 rmoveto
          -107 callsubr
          14.00586 110.00098 rmoveto
          -106 callsubr
          -668 -498.00098 rmoveto
          -105 callsubr
          endchar
        </CharString>
        <CharString name="s0072">
          732 530 rmoveto
          -107 callsubr
          14.00586 110.00098 rmoveto
          -106 callsubr
          -668 -498.00098 rmoveto
          -105 callsubr
          endchar
        </CharString>
        <CharString name="s0073">
          732 530 rmoveto
          -107 callsubr
          14.00586 110.00098 rmoveto
          -106 callsubr
          -668 -498.00098 rmoveto
          -105 callsubr
          endchar
        </CharString>
        <CharString name="s0074">
          732 530 rmoveto
          -107 callsubr
          14.00586 110.00098 rmoveto
          -106 callsubr
          -668 -498.00098 rmoveto
          -105 callsubr
          endchar
        </CharString>
        <CharString name="s0075">
          732 530 rmoveto
          -107 callsubr
          14.00586 110.00098 rmoveto
          -106 callsubr
          -668 -498.00098 rmoveto
          -105 callsubr
          endchar
        </CharString>
        <CharString name="s0076">
          732 530 rmoveto
          -107 callsubr
          14.00586 110.00098 rmoveto
          -106 callsubr
          -668 -498.00098 rmoveto
          -105 callsubr
          endchar
        </CharString>
        <CharString name="s0077">
          732 530 rmoveto
          -107 callsubr
          14.00586 110.00098 rmoveto
          -106 callsubr
          -668 -498.00098 rmoveto
          -105 callsubr
          endchar
        </CharString>
        <CharString name="s0078">
          732 530 rmoveto
          -107 callsubr
          14.00586 110.00098 rmoveto
          -106 callsubr
          -668 -498.00098 rmoveto
          -105 callsubr
          endchar
        </CharString>
        <CharString name="s0079">
          732 530 rmoveto
          -107 callsubr
          14.00586 110.00098 rmoveto
          -106 callsubr
          -668 -498.00098 rmoveto
          -105 callsubr
          endchar
        </CharString>
        <CharString name="s0080">
          732 530 rmoveto
          -107 callsubr
          14.00586 110.00098 rmoveto
          -106 callsubr
          -668 -498.00098 rmoveto
          -105 callsubr
          endchar
        </CharString>
        <CharString name="s0081">
          732 530 rmoveto
          -107 callsubr
          14.00586 110.00098 rmoveto
          -106 callsubr
          -668 -498.00098 rmoveto
          -105 callsubr
          endchar
        </CharString>
        <CharString name="s0082">
          732 530 rmoveto
          -107 callsubr
          14.00586 110.00098 rmoveto
          -106 callsubr
          -668 -498.00098 rmoveto
          -105 callsubr
          endchar
        </CharString>
        <CharString name="s0083">
          732 530 rmoveto
          -107 callsubr
          14.00586 110.00098 rmoveto
          -106 callsubr
          -668 -498.00098 rmoveto
          -105 callsubr
          endchar
        </CharString>
        <CharString name="s0084">
          732 530 rmoveto
          -107 callsubr
          14.00586 110.00098 rmoveto
          -106 callsubr
          -668 -498.00098 rmoveto
          -105 callsubr
          endchar
        </CharString>
        <CharString name="s0085">
          732 530 rmoveto
          -107 callsubr
          14.00586 110.00098 rmoveto
          -106 callsubr
          -668 -498.00098 rmoveto
          -105 callsubr
          endchar
        </CharString>
        <CharString name="s0086">
          732 530 rmoveto
          -107 callsubr
          14.00586 110.00098 rmoveto
          -106 callsubr
          -668 -498.00098 rmoveto
          -105 callsubr
          endchar
        </CharString>
        <CharString name="s0087">
          732 530 rmoveto
          -107 callsubr
          14.00586 110.00098 rmoveto
          -106 callsubr
          -668 -498.00098 rmoveto
          -105 callsubr
          endchar
        </CharString>
        <CharString name="s0088">
          732 530 rmoveto
          -107 callsubr
          14.00586 110.00098 rmoveto
          -106 callsubr
          -668 -498.00098 rmoveto
          -105 callsubr
          endchar
        </CharString>
        <CharString name="s0089">
          732 530 rmoveto
          -107 callsubr
          14.00586 110.00098 rmoveto
          -106 callsubr
          -668 -498.00098 rmoveto
          -105 callsubr
          endchar
        </CharString>
        <CharString name="s0090">
          732 530 rmoveto
          -107 callsubr
          14.00586 110.00098 rmoveto
          -106 callsubr
          -668 -498.00098 rmoveto
          -105 callsubr
          endchar
        </CharString>
        <CharString name="s0091">
          732 530 rmoveto
          -107 callsubr
          14.00586 110.00098 rmoveto
          -106 callsubr
          -668 -498.00098 rmoveto
          -105 callsubr
          endchar
        </CharString>
        <CharString name="s0092">
          732 530 rmoveto
          -107 callsubr
          14.00586 110.00098 rmoveto
          -106 callsubr
          -668 -498.00098 rmoveto
          -105 callsubr
          endchar
        </CharString>
        <CharString name="s0093">
          732 530 rmoveto
          -107 callsubr
          14.00586 110.00098 rmoveto
          -106 callsubr
          -668 -498.00098 rmoveto
          -105 callsubr
          endchar
        </CharString>
        <CharString name="s0094">
          732 530 rmoveto
          -107 callsubr
          14.00586 110.00098 rmoveto
          -106 callsubr
          -668 -498.00098 rmoveto
          -105 callsubr
          endchar
        </CharString>
        <CharString name="s0095">
          732 530 rmoveto
          -107 callsubr
          14.00586 110.00098 rmoveto
          -106 callsubr
          -668 -498.00098 rmoveto
          -105 callsubr
          endchar
        </CharString>
        <CharString name="s0096">
          732 530 rmoveto
          -107 callsubr
          14.00586 110.00098 rmoveto
          -106 callsubr
          -668 -498.00098 rmoveto
          -105 callsubr
          endchar
        </CharString>
        <CharString name="s0097">
          732 530 rmoveto
          -107 callsubr
          14.00586 110.00098 rmoveto
          -106 callsubr
          -668 -498.00098 rmoveto
          -105 callsubr
          endchar
        </CharString>
        <CharString name="s0098">
          732 530 rmoveto
          -107 callsubr
          14.00586 110.00098 rmoveto
          -106 callsubr
          -668 -498.00098 rmoveto
          -105 callsubr
          endchar
        </CharString>
        <CharString name="s0099">
          732 530 rmoveto
          -107 callsubr
          14.00586 110.00098 rmoveto
          -106 callsubr
          -668 -498.00098 rmoveto
          -105 callsubr
          endchar
        </CharString>
        <CharString name="s0100">
          732 530 rmoveto
          -107 callsubr
          14.00586 110.00098 rmoveto
          -106 callsubr
          -668 -498.00098 rmoveto
          -105 callsubr
          endchar
        </CharString>
        <CharString name="s0101">
          732 530 rmoveto
          -107 callsubr
          14.00586 110.00098 rmoveto
          -106 callsubr
          -668 -498.00098 rmoveto
          -105 callsubr
          endchar
        </CharString>
        <CharString name="s0102">
          732 530 rmoveto
          -107 callsubr
          14.00586 110.00098 rmoveto
          -106 callsubr
          -668 -498.00098 rmoveto
          -105 callsubr
          endchar
        </CharString>
        <CharString name="s0103">
          732 530 rmoveto
          -107 callsubr
          14.00586 110.00098 rmoveto
          -106 callsubr
          -668 -498.00098 rmoveto
          -105 callsubr
          endchar
        </CharString>
        <CharString name="s0104">
          732 530 rmoveto
          -107 callsubr
          14.00586 110.00098 rmoveto
          -106 callsubr
          -668 -498.00098 rmoveto
          -105 callsubr
          endchar
        </CharString>
        <CharString name="s0105">
          732 530 rmoveto
          -107 callsubr
          14.00586 110.00098 rmoveto
          -106 callsubr
          -668 -498.00098 rmoveto
          -105 callsubr
          endchar
        </CharString>
        <CharString name="s0106">
          732 530 rmoveto
          -107 callsubr
          14.00586 110.00098 rmoveto
          -106 callsubr
          -668 -498.00098 rmoveto
          -105 callsubr
          endchar
        </CharString>
        <CharString name="s0107">
          732 530 rmoveto
          -107 callsubr
          14.00586 110.00098 rmoveto
          -106 callsubr
          -668 -498.00098 rmoveto
          -105 callsubr
          endchar
        </CharString>
        <CharString name="s0108">
          732 530 rmoveto
          -107 callsubr
          14.00586 110.00098 rmoveto
          -106 callsubr
          -668 -498.00098 rmoveto
          -105 callsubr
          endchar
        </CharString>
        <CharString name="s0109">
          732 530 rmoveto
          -107 callsubr
          14.00586 110.00098 rmoveto
          -106 callsubr
          -668 -498.00098 rmoveto
          -105 callsubr
          endchar
        </CharString>
        <CharString name="s0110">
          732 530 rmoveto
          -107 callsubr
          14.00586 110.00098 rmoveto
          -106 callsubr
          -668 -498.00098 rmoveto
          -105 callsubr
          endchar
        </CharString>
        <CharString name="s0111">
          732 530 rmoveto
          -107 callsubr
          14.00586 110.00098 rmoveto
          -106 callsubr
          -668 -498.00098 rmoveto
          -105 callsubr
          endchar
        </CharString>
        <CharString name="s0112">
          732 530 rmoveto
          -107 callsubr
          14.00586 110.00098 rmoveto
          -106 callsubr
          -668 -498.00098 rmoveto
          -105 callsubr
          endchar
        </CharString>
        <CharString name="s0113">
          732 530 rmoveto
          -107 callsubr
          14.00586 110.00098 rmoveto
          -106 callsubr
          -668 -498.00098 rmoveto
          -105 callsubr
          endchar
        </CharString>
        <CharString name="s0114">
          732 530 rmoveto
          -107 callsubr
          14.00586 110.00098 rmoveto
          -106 callsubr
          -668 -498.00098 rmoveto
          -105 callsubr
          endchar
        </CharString>
        <CharString name="s0115">
          732 530 rmoveto
          -107 callsubr
          14.00586 110.00098 rmoveto
          -106 callsubr
          -668 -498.00098 rmoveto
          -105 callsubr
          endchar
        </CharString>
        <CharString name="s0116">
          732 530 rmoveto
          -107 callsubr
          14.00586 110.00098 rmoveto
          -106 callsubr
          -668 -498.00098 rmoveto
          -105 callsubr
          endchar
        </CharString>
        <CharString name="s0117">
          732 530 rmoveto
          -107 callsubr
          14.00586 110.00098 rmoveto
          -106 callsubr
          -668 -498.00098 rmoveto
          -105 callsubr
          endchar
        </CharString>
        <CharString name="s0118">
          732 530 rmoveto
          -107 callsubr
          14.00586 110.00098 rmoveto
          -106 callsubr
          -668 -498.00098 rmoveto
          -105 callsubr
          endchar
        </CharString>
        <CharString name="s0119">
          732 530 rmoveto
          -107 callsubr
          14.00586 110.00098 rmoveto
          -106 callsubr
          -668 -498.00098 rmoveto
          -105 callsubr
          endchar
        </CharString>
        <CharString name="s0120">
          732 530 rmoveto
          -107 callsubr
          14.00586 110.00098 rmoveto
          -106 callsubr
          -668 -498.00098 rmoveto
          -105 callsubr
          endchar
        </CharString>
        <CharString name="s0121">
          732 530 rmoveto
          -107 callsubr
          14.00586 110.00098 rmoveto
          -106 callsubr
          -668 -498.00098 rmoveto
          -105 callsubr
          endchar
        </CharString>
        <CharString name="s0122">
          732 530 rmoveto
          -107 callsubr
          14.00586 110.00098 rmoveto
          -106 callsubr
          -668 -498.00098 rmoveto
          -105 callsubr
          endchar
        </CharString>
        <CharString name="s0123">
          732 530 rmoveto
          -107 callsubr
          14.00586 110.00098 rmoveto
          -106 callsubr
          -668 -498.00098 rmoveto
          -105 callsubr
          endchar
        </CharString>
        <CharString name="s0124">
          732 530 rmoveto
          -107 callsubr
          14.00586 110.00098 rmoveto
          -106 callsubr
          -668 -498.00098 rmoveto
          -105 callsubr
          endchar
        </CharString>
        <CharString name="s0125">
          732 530 rmoveto
          -107 callsubr
          14.00586 110.00098 rmoveto
          -106 callsubr
          -668 -498.00098 rmoveto
          -105 callsubr
          endchar
        </CharString>
        <CharString name="s0126">
          732 530 rmoveto
          -107 callsubr
          14.00586 110.00098 rmoveto
          -106 callsubr
          -668 -498.00098 rmoveto
          -105 callsubr
          endchar
        </CharString>
        <CharString name="s0127">
          732 530 rmoveto
          -107 callsubr
          14.00586 110.00098 rmoveto
          -106 callsubr
          -668 -498.00098 rmoveto
          -105 callsubr
          endchar
        </CharString>
        <CharString name="s0128">
          732 530 rmoveto
          -107 callsubr
          14.00586 110.00098 rmoveto
          -106 callsubr
          -668 -498.00098 rmoveto
          -105 callsubr
          endchar
        </CharString>
        <CharString name="s0129">
          732 530 rmoveto
          -107 callsubr
          14.00586 110.00098 rmoveto
          -106 callsubr
          -668 -498.00098 rmoveto
          -105 callsubr
          endchar
        </CharString>
        <CharString name="s0130">
          732 530 rmoveto
          -107 callsubr
          14.00586 110.00098 rmoveto
          -106 callsubr
          -668 -498.00098 rmoveto
          -105 callsubr
          endchar
        </CharString>
        <CharString name="s0131">
          732 530 rmoveto
          -107 callsubr
          14.00586 110.00098 rmoveto
          -106 callsubr
          -668 -498.00098 rmoveto
          -105 callsubr
          endchar
        </CharString>
        <CharString name="s0132">
          732 530 rmoveto
          -107 callsubr
          14.00586 110.00098 rmoveto
          -106 callsubr
          -668 -498.00098 rmoveto
          -105 callsubr
          endchar
        </CharString>
        <CharString name="s0133">
          732 530 rmoveto
          -107 callsubr
          14.00586 110.00098 rmoveto
          -106 callsubr
          -668 -498.00098 rmoveto
          -105 callsubr
          endchar
        </CharString>
        <CharString name="s0134">
          732 530 rmoveto
          -107 callsubr
          14.00586 110.00098 rmoveto
          -106 callsubr
          -668 -498.00098 rmoveto
          -105 callsubr
          endchar
        </CharString>
        <CharString name="s0135">
          732 530 rmoveto
          -107 callsubr
          14.00586 110.00098 rmoveto
          -106 callsubr
          -668 -498.00098 rmoveto
          -105 callsubr
          endchar
        </CharString>
        <CharString name="s0136">
          732 530 rmoveto
          -107 callsubr
          14.00586 110.00098 rmoveto
          -106 callsubr
          -668 -498.00098 rmoveto
          -105 callsubr
          endchar
        </CharString>
        <CharString name="s0137">
          732 530 rmoveto
          -107 callsubr
          14.00586 110.00098 rmoveto
          -106 callsubr
          -668 -498.00098 rmoveto
          -105 callsubr
          endchar
        </CharString>
        <CharString name="s0138">
          732 530 rmoveto
          -107 callsubr
          14.00586 110.00098 rmoveto
          -106 callsubr
          -668 -498.00098 rmoveto
          -105 callsubr
          endchar
        </CharString>
        <CharString name="s0139">
          732 530 rmoveto
          -107 callsubr
          14.00586 110.00098 rmoveto
          -106 callsubr
          -668 -498.00098 rmoveto
          -105 callsubr
          endchar
        </CharString>
        <CharString name="s0140">
          732 530 rmoveto
          -107 callsubr
          14.00586 110.00098 rmoveto
          -106 callsubr
          -668 -498.00098 rmoveto
          -105 callsubr
          endchar
        </CharString>
        <CharString name="s0141">
          732 530 rmoveto
          -107 callsubr
          14.00586 110.00098 rmoveto
          -106 callsubr
          -668 -498.00098 rmoveto
          -105 callsubr
          endchar
        </CharString>
        <CharString name="s0142">
          732 530 rmoveto
          -107 callsubr
          14.00586 110.00098 rmoveto
          -106 callsubr
          -668 -498.00098 rmoveto
          -105 callsubr
          endchar
        </CharString>
        <CharString name="s0143">
          732 530 rmoveto
          -107 callsubr
          14.00586 110.00098 rmoveto
          -106 callsubr
          -668 -498.00098 rmoveto
          -105 callsubr
          endchar
        </CharString>
        <CharString name="s0144">
          732 530 rmoveto
          -107 callsubr
          14.00586 110.00098 rmoveto
          -106 callsubr
          -668 -498.00098 rmoveto
          -105 callsubr
          endchar
        </CharString>
        <CharString name="s0145">
          732 530 rmoveto
          -107 callsubr
          14.00586 110.00098 rmoveto
          -106 callsubr
          -668 -498.00098 rmoveto
          -105 callsubr
          endchar
        </CharString>
        <CharString name="s0146">
          732 530 rmoveto
          -107 callsubr
          14.00586 110.00098 rmoveto
          -106 callsubr
          -668 -498.00098 rmoveto
          -105 callsubr
          endchar
        </CharString>
        <CharString name="s0147">
          732 530 rmoveto
          -107 callsubr
          14.00586 110.00098 rmoveto
          -106 callsubr
          -668 -498.00098 rmoveto
          -105 callsubr
          endchar
        </CharString>
        <CharString name="s0148">
          732 530 rmoveto
          -107 callsubr
          14.00586 110.00098 rmoveto
          -106 callsubr
          -668 -498.00098 rmoveto
          -105 callsubr
          endchar
        </CharString>
        <CharString name="s0149">
          732 530 rmoveto
          -107 callsubr
          14.00586 110.00098 rmoveto
          -106 callsubr
          -668 -498.00098 rmoveto
          -105 callsubr
          endchar
        </CharString>
        <CharString name="s0150">
          732 530 rmoveto
          -107 callsubr
          14.00586 110.00098 rmoveto
          -106 callsubr
          -668 -498.00098 rmoveto
          -105 callsubr
          endchar
        </CharString>
        <CharString name="s0151">
          732 530 rmoveto
          -107 callsubr
          14.00586 110.00098 rmoveto
          -106 callsubr
          -668 -498.00098 rmoveto
          -105 callsubr
          endchar
        </CharString>
        <CharString name="s0152">
          732 530 rmoveto
          -107 callsubr
          14.00586 110.00098 rmoveto
          -106 callsubr
          -668 -498.00098 rmoveto
          -105 callsubr
          endchar
        </CharString>
        <CharString name="s0153">
          732 530 rmoveto
          -107 callsubr
          14.00586 110.00098 rmoveto
          -106 callsubr
          -668 -498.00098 rmoveto
          -105 callsubr
          endchar
        </CharString>
        <CharString name="s0154">
          732 530 rmoveto
          -107 callsubr
          14.00586 110.00098 rmoveto
          -106 callsubr
          -668 -498.00098 rmoveto
          -105 callsubr
          endchar
        </CharString>
        <CharString name="s0155">
          732 530 rmoveto
          -107 callsubr
          14.00586 110.00098 rmoveto
          -106 callsubr
          -668 -498.00098 rmoveto
          -105 callsubr
          endchar
        </CharString>
        <CharString name="s0156">
          732 530 rmoveto
          -107 callsubr
          14.00586 110.00098 rmoveto
          -106 callsubr
          -668 -498.00098 rmoveto
          -105 callsubr
          endchar
        </CharString>
        <CharString name="s0157">
          732 530 rmoveto
          -107 callsubr
          14.00586 110.00098 rmoveto
          -106 callsubr
          -668 -498.00098 rmoveto
          -105 callsubr
          endchar
        </CharString>
        <CharString name="s0158">
          732 530 rmoveto
          -107 callsubr
          14.00586 110.00098 rmoveto
          -106 callsubr
          -668 -498.00098 rmoveto
          -105 callsubr
          endchar
        </CharString>
        <CharString name="s0159">
          732 530 rmoveto
          -107 callsubr
          14.00586 110.00098 rmoveto
          -106 callsubr
          -668 -498.00098 rmoveto
          -105 callsubr
          endchar
        </CharString>
        <CharString name="s0160">
          732 530 rmoveto
          -107 callsubr
          14.00586 110.00098 rmoveto
          -106 callsubr
          -668 -498.00098 rmoveto
          -105 callsubr
          endchar
        </CharString>
        <CharString name="s0161">
          732 530 rmoveto
          -107 callsubr
          14.00586 110.00098 rmoveto
          -106 callsubr
          -668 -498.00098 rmoveto
          -105 callsubr
          endchar
        </CharString>
        <CharString name="s0162">
          732 530 rmoveto
          -107 callsubr
          14.00586 110.00098 rmoveto
          -106 callsubr
          -668 -498.00098 rmoveto
          -105 callsubr
          endchar
        </CharString>
        <CharString name="s0163">
          732 530 rmoveto
          -107 callsubr
          14.00586 110.00098 rmoveto
          -106 callsubr
          -668 -498.00098 rmoveto
          -105 callsubr
          endchar
        </CharString>
        <CharString name="s0164">
          732 530 rmoveto
          -107 callsubr
          14.00586 110.00098 rmoveto
          -106 callsubr
          -668 -498.00098 rmoveto
          -105 callsubr
          endchar
        </CharString>
        <CharString name="s0165">
          732 530 rmoveto
          -107 callsubr
          14.00586 110.00098 rmoveto
          -106 callsubr
          -668 -498.00098 rmoveto
          -105 callsubr
          endchar
        </CharString>
        <CharString name="s0166">
          732 530 rmoveto
          -107 callsubr
          14.00586 110.00098 rmoveto
          -106 callsubr
          -668 -498.00098 rmoveto
          -105 callsubr
          endchar
        </CharString>
        <CharString name="s0167">
          732 530 rmoveto
          -107 callsubr
          14.00586 110.00098 rmoveto
          -106 callsubr
          -668 -498.00098 rmoveto
          -105 callsubr
          endchar
        </CharString>
        <CharString name="s0168">
          732 530 rmoveto
          -107 callsubr
          14.00586 110.00098 rmoveto
          -106 callsubr
          -668 -498.00098 rmoveto
          -105 callsubr
          endchar
        </CharString>
        <CharString name="s0169">
          732 530 rmoveto
          -107 callsubr
          14.00586 110.00098 rmoveto
          -106 callsubr
          -668 -498.00098 rmoveto
          -105 callsubr
          endchar
        </CharString>
        <CharString name="s0170">
          732 530 rmoveto
          -107 callsubr
          14.00586 110.00098 rmoveto
          -106 callsubr
          -668 -498.00098 rmoveto
          -105 callsubr
          endchar
        </CharString>
        <CharString name="s0171">
          732 530 rmoveto
          -107 callsubr
          14.00586 110.00098 rmoveto
          -106 callsubr
          -668 -498.00098 rmoveto
          -105 callsubr
          endchar
        </CharString>
        <CharString name="s0172">
          732 530 rmoveto
          -107 callsubr
          14.00586 110.00098 rmoveto
          -106 callsubr
          -668 -498.00098 rmoveto
          -105 callsubr
          endchar
        </CharString>
        <CharString name="s0173">
          732 530 rmoveto
          -107 callsubr
          14.00586 110.00098 rmoveto
          -106 callsubr
          -668 -498.00098 rmoveto
          -105 callsubr
          endchar
        </CharString>
        <CharString name="s0174">
          732 530 rmoveto
          -107 callsubr
          14.00586 110.00098 rmoveto
          -106 callsubr
          -668 -498.00098 rmoveto
          -105 callsubr
          endchar
        </CharString>
        <CharString name="s0175">
          732 530 rmoveto
          -107 callsubr
          14.00586 110.00098 rmoveto
          -106 callsubr
          -668 -498.00098 rmoveto
          -105 callsubr
          endchar
        </CharString>
        <CharString name="s0176">
          732 530 rmoveto
          -107 callsubr
          14.00586 110.00098 rmoveto
          -106 callsubr
          -668 -498.00098 rmoveto
          -105 callsubr
          endchar
        </CharString>
        <CharString name="s0177">
          732 530 rmoveto
          -107 callsubr
          14.00586 110.00098 rmoveto
          -106 callsubr
          -668 -498.00098 rmoveto
          -105 callsubr
          endchar
        </CharString>
        <CharString name="s0178">
          732 530 rmoveto
          -107 callsubr
          14.00586 110.00098 rmoveto
          -106 callsubr
          -668 -498.00098 rmoveto
          -105 callsubr
          endchar
        </CharString>
        <CharString name="s0179">
          732 530 rmoveto
          -107 callsubr
          14.00586 110.00098 rmoveto
          -106 callsubr
          -668 -498.00098 rmoveto
          -105 callsubr
          endchar
        </CharString>
        <CharString name="s0180">
          732 530 rmoveto
          -107 callsubr
          14.00586 110.00098 rmoveto
          -106 callsubr
          -668 -498.00098 rmoveto
          -105 callsubr
          endchar
        </CharString>
        <CharString name="s0181">
          732 530 rmoveto
          -107 callsubr
          14.00586 110.00098 rmoveto
          -106 callsubr
          -668 -498.00098 rmoveto
          -105 callsubr
          endchar
        </CharString>
        <CharString name="s0182">
          732 530 rmoveto
          -107 callsubr
          14.00586 110.00098 rmoveto
          -106 callsubr
          -668 -498.00098 rmoveto
          -105 callsubr
          endchar
        </CharString>
        <CharString name="s0183">
          732 530 rmoveto
          -107 callsubr
          14.00586 110.00098 rmoveto
          -106 callsubr
          -668 -498.00098 rmoveto
          -105 callsubr
          endchar
        </CharString>
        <CharString name="s0184">
          732 530 rmoveto
          -107 callsubr
          14.00586 110.00098 rmoveto
          -106 callsubr
          -668 -498.00098 rmoveto
          -105 callsubr
          endchar
        </CharString>
        <CharString name="s0185">
          732 530 rmoveto
          -107 callsubr
          14.00586 110.00098 rmoveto
          -106 callsubr
          -668 -498.00098 rmoveto
          -105 callsubr
          endchar
        </CharString>
        <CharString name="s0186">
          732 530 rmoveto
          -107 callsubr
          14.00586 110.00098 rmoveto
          -106 callsubr
          -668 -498.00098 rmoveto
          -105 callsubr
          endchar
        </CharString>
        <CharString name="s0187">
          732 530 rmoveto
          -107 callsubr
          14.00586 110.00098 rmoveto
          -106 callsubr
          -668 -498.00098 rmoveto
          -105 callsubr
          endchar
        </CharString>
        <CharString name="s0188">
          732 530 rmoveto
          -107 callsubr
          14.00586 110.00098 rmoveto
          -106 callsubr
          -668 -498.00098 rmoveto
          -105 callsubr
          endchar
        </CharString>
        <CharString name="s0189">
          732 530 rmoveto
          -107 callsubr
          14.00586 110.00098 rmoveto
          -106 callsubr
          -668 -498.00098 rmoveto
          -105 callsubr
          endchar
        </CharString>
        <CharString name="s0190">
          732 530 rmoveto
          -107 callsubr
          14.00586 110.00098 rmoveto
          -106 callsubr
          -668 -498.00098 rmoveto
          -105 callsubr
          endchar
        </CharString>
        <CharString name="s0191">
          732 530 rmoveto
          -107 callsubr
          14.00586 110.00098 rmoveto
          -106 callsubr
          -668 -498.00098 rmoveto
          -105 callsubr
          endchar
        </CharString>
        <CharString name="s0192">
          732 530 rmoveto
          -107 callsubr
          14.00586 110.00098 rmoveto
          -106 callsubr
          -668 -498.00098 rmoveto
          -105 callsubr
          endchar
        </CharString>
        <CharString name="s0193">
          732 530 rmoveto
          -107 callsubr
          14.00586 110.00098 rmoveto
          -106 callsubr
          -668 -498.00098 rmoveto
          -105 callsubr
          endchar
        </CharString>
        <CharString name="s0194">
          732 530 rmoveto
          -107 callsubr
          14.00586 110.00098 rmoveto
          -106 callsubr
          -668 -498.00098 rmoveto
          -105 callsubr
          endchar
        </CharString>
        <CharString name="s0195">
          732 530 rmoveto
          -107 callsubr
          14.00586 110.00098 rmoveto
          -106 callsubr
          -668 -498.00098 rmoveto
          -105 callsubr
          endchar
        </CharString>
        <CharString name="s0196">
          732 530 rmoveto
          -107 callsubr
          14.00586 110.00098 rmoveto
          -106 callsubr
          -668 -498.00098 rmoveto
          -105 callsubr
          endchar
        </CharString>
        <CharString name="s0197">
          732 530 rmoveto
          -107 callsubr
          14.00586 110.00098 rmoveto
          -106 callsubr
          -668 -498.00098 rmoveto
          -105 callsubr
          endchar
        </CharString>
        <CharString name="s0198">
          732 530 rmoveto
          -107 callsubr
          14.00586 110.00098 rmoveto
          -106 callsubr
          -668 -498.00098 rmoveto
          -105 callsubr
          endchar
        </CharString>
        <CharString name="s0199">
          732 530 rmoveto
          -107 callsubr
          14.00586 110.00098 rmoveto
          -106 callsubr
          -668 -498.00098 rmoveto
          -105 callsubr
          endchar
        </CharString>
        <CharString name="s0200">
          732 530 rmoveto
          -107 callsubr
          14.00586 110.00098 rmoveto
          -106 callsubr
          -668 -498.00098 rmoveto
          -105 callsubr
          endchar
        </CharString>
        <CharString name="s0201">
          732 530 rmoveto
          -107 callsubr
          14.00586 110.00098 rmoveto
          -106 callsubr
          -668 -498.00098 rmoveto
          -105 callsubr
          endchar
        </CharString>
        <CharString name="s0202">
          732 530 rmoveto
          -107 callsubr
          14.00586 110.00098 rmoveto
          -106 callsubr
          -668 -498.00098 rmoveto
          -105 callsubr
          endchar
        </CharString>
        <CharString name="s0203">
          732 530 rmoveto
          -107 callsubr
          14.00586 110.00098 rmoveto
          -106 callsubr
          -668 -498.00098 rmoveto
          -105 callsubr
          endchar
        </CharString>
        <CharString name="s0204">
          732 530 rmoveto
          -107 callsubr
          14.00586 110.00098 rmoveto
          -106 callsubr
          -668 -498.00098 rmoveto
          -105 callsubr
          endchar
        </CharString>
        <CharString name="s0205">
          732 530 rmoveto
          -107 callsubr
          14.00586 110.00098 rmoveto
          -106 callsubr
          -668 -498.00098 rmoveto
          -105 callsubr
          endchar
        </CharString>
        <CharString name="s0206">
          732 530 rmoveto
          -107 callsubr
          14.00586 110.00098 rmoveto
          -106 callsubr
          -668 -498.00098 rmoveto
          -105 callsubr
          endchar
        </CharString>
        <CharString name="s0207">
          732 530 rmoveto
          -107 callsubr
          14.00586 110.00098 rmoveto
          -106 callsubr
          -668 -498.00098 rmoveto
          -105 callsubr
          endchar
        </CharString>
        <CharString name="s0208">
          732 530 rmoveto
          -107 callsubr
          14.00586 110.00098 rmoveto
          -106 callsubr
          -668 -498.00098 rmoveto
          -105 callsubr
          endchar
        </CharString>
        <CharString name="s0209">
          732 530 rmoveto
          -107 callsubr
          14.00586 110.00098 rmoveto
          -106 callsubr
          -668 -498.00098 rmoveto
          -105 callsubr
          endchar
        </CharString>
        <CharString name="s0210">
          732 530 rmoveto
          -107 callsubr
          14.00586 110.00098 rmoveto
          -106 callsubr
          -668 -498.00098 rmoveto
          -105 callsubr
          endchar
        </CharString>
        <CharString name="s0211">
          732 530 rmoveto
          -107 callsubr
          14.00586 110.00098 rmoveto
          -106 callsubr
          -668 -498.00098 rmoveto
          -105 callsubr
          endchar
        </CharString>
        <CharString name="s0212">
          732 530 rmoveto
          -107 callsubr
          14.00586 110.00098 rmoveto
          -106 callsubr
          -668 -498.00098 rmoveto
          -105 callsubr
          endchar
        </CharString>
        <CharString name="s0213">
          732 530 rmoveto
          -107 callsubr
          14.00586 110.00098 rmoveto
          -106 callsubr
          -668 -498.00098 rmoveto
          -105 callsubr
          endchar
        </CharString>
        <CharString name="s0214">
          732 530 rmoveto
          -107 callsubr
          14.00586 110.00098 rmoveto
          -106 callsubr
          -668 -498.00098 rmoveto
          -105 callsubr
          endchar
        </CharString>
        <CharString name="s0215">
          732 530 rmoveto
          -107 callsubr
          14.00586 110.00098 rmoveto
          -106 callsubr
          -668 -498.00098 rmoveto
          -105 callsubr
          endchar
        </CharString>
        <CharString name="s0216">
          732 530 rmoveto
          -107 callsubr
          14.00586 110.00098 rmoveto
          -106 callsubr
          -668 -498.00098 rmoveto
          -105 callsubr
          endchar
        </CharString>
        <CharString name="s0217">
          732 530 rmoveto
          -107 callsubr
          14.00586 110.00098 rmoveto
          -106 callsubr
          -668 -498.00098 rmoveto
          -105 callsubr
          endchar
        </CharString>
        <CharString name="s0218">
          732 530 rmoveto
          -107 callsubr
          14.00586 110.00098 rmoveto
          -106 callsubr
          -668 -498.00098 rmoveto
          -105 callsubr
          endchar
        </CharString>
        <CharString name="s0219">
          732 530 rmoveto
          -107 callsubr
          14.00586 110.00098 rmoveto
          -106 callsubr
          -668 -498.00098 rmoveto
          -105 callsubr
          endchar
        </CharString>
        <CharString name="s0220">
          732 530 rmoveto
          -107 callsubr
          14.00586 110.00098 rmoveto
          -106 callsubr
          -668 -498.00098 rmoveto
          -105 callsubr
          endchar
        </CharString>
        <CharString name="s0221">
          732 530 rmoveto
          -107 callsubr
          14.00586 110.00098 rmoveto
          -106 callsubr
          -668 -498.00098 rmoveto
          -105 callsubr
          endchar
        </CharString>
        <CharString name="s0222">
          732 530 rmoveto
          -107 callsubr
          14.00586 110.00098 rmoveto
          -106 callsubr
          -668 -498.00098 rmoveto
          -105 callsubr
          endchar
        </CharString>
        <CharString name="s0223">
          732 530 rmoveto
          -107 callsubr
          14.00586 110.00098 rmoveto
          -106 callsubr
          -668 -498.00098 rmoveto
          -105 callsubr
          endchar
        </CharString>
        <CharString name="s0224">
          732 530 rmoveto
          -107 callsubr
          14.00586 110.00098 rmoveto
          -106 callsubr
          -668 -498.00098 rmoveto
          -105 callsubr
          endchar
        </CharString>
        <CharString name="s0225">
          732 530 rmoveto
          -107 callsubr
          14.00586 110.00098 rmoveto
          -106 callsubr
          -668 -498.00098 rmoveto
          -105 callsubr
          endchar
        </CharString>
        <CharString name="s0226">
          732 530 rmoveto
          -107 callsubr
          14.00586 110.00098 rmoveto
          -106 callsubr
          -668 -498.00098 rmoveto
          -105 callsubr
          endchar
        </CharString>
        <CharString name="s0227">
          732 530 rmoveto
          -107 callsubr
          14.00586 110.00098 rmoveto
          -106 callsubr
          -668 -498.00098 rmoveto
          -105 callsubr
          endchar
        </CharString>
        <CharString name="s0228">
          732 530 rmoveto
          -107 callsubr
          14.00586 110.00098 rmoveto
          -106 callsubr
          -668 -498.00098 rmoveto
          -105 callsubr
          endchar
        </CharString>
        <CharString name="s0229">
          732 530 rmoveto
          -107 callsubr
          14.00586 110.00098 rmoveto
          -106 callsubr
          -668 -498.00098 rmoveto
          -105 callsubr
          endchar
        </CharString>
        <CharString name="s0230">
          732 530 rmoveto
          -107 callsubr
          14.00586 110.00098 rmoveto
          -106 callsubr
          -668 -498.00098 rmoveto
          -105 callsubr
          endchar
        </CharString>
        <CharString name="s0231">
          732 530 rmoveto
          -107 callsubr
          14.00586 110.00098 rmoveto
          -106 callsubr
          -668 -498.00098 rmoveto
          -105 callsubr
          endchar
        </CharString>
        <CharString name="s0232">
          732 530 rmoveto
          -107 callsubr
          14.00586 110.00098 rmoveto
          -106 callsubr
          -668 -498.00098 rmoveto
          -105 callsubr
          endchar
        </CharString>
        <CharString name="s0233">
          732 530 rmoveto
          -107 callsubr
          14.00586 110.00098 rmoveto
          -106 callsubr
          -668 -498.00098 rmoveto
          -105 callsubr
          endchar
        </CharString>
        <CharString name="s0234">
          732 530 rmoveto
          -107 callsubr
          14.00586 110.00098 rmoveto
          -106 callsubr
          -668 -498.00098 rmoveto
          -105 callsubr
          endchar
        </CharString>
        <CharString name="s0235">
          732 530 rmoveto
          -107 callsubr
          14.00586 110.00098 rmoveto
          -106 callsubr
          -668 -498.00098 rmoveto
          -105 callsubr
          endchar
        </CharString>
        <CharString name="s0236">
          732 530 rmoveto
          -107 callsubr
          14.00586 110.00098 rmoveto
          -106 callsubr
          -668 -498.00098 rmoveto
          -105 callsubr
          endchar
        </CharString>
        <CharString name="s0237">
          732 530 rmoveto
          -107 callsubr
          14.00586 110.00098 rmoveto
          -106 callsubr
          -668 -498.00098 rmoveto
          -105 callsubr
          endchar
        </CharString>
        <CharString name="s0238">
          732 530 rmoveto
          -107 callsubr
          14.00586 110.00098 rmoveto
          -106 callsubr
          -668 -498.00098 rmoveto
          -105 callsubr
          endchar
        </CharString>
        <CharString name="s0239">
          732 530 rmoveto
          -107 callsubr
          14.00586 110.00098 rmoveto
          -106 callsubr
          -668 -498.00098 rmoveto
          -105 callsubr
          endchar
        </CharString>
        <CharString name="s0240">
          732 530 rmoveto
          -107 callsubr
          14.00586 110.00098 rmoveto
          -106 callsubr
          -668 -498.00098 rmoveto
          -105 callsubr
          endchar
        </CharString>
        <CharString name="s0241">
          732 530 rmoveto
          -107 callsubr
          14.00586 110.00098 rmoveto
          -106 callsubr
          -668 -498.00098 rmoveto
          -105 callsubr
          endchar
        </CharString>
        <CharString name="s0242">
          732 530 rmoveto
          -107 callsubr
          14.00586 110.00098 rmoveto
          -106 callsubr
          -668 -498.00098 rmoveto
          -105 callsubr
          endchar
        </CharString>
        <CharString name="s0243">
          732 530 rmoveto
          -107 callsubr
          14.00586 110.00098 rmoveto
          -106 callsubr
          -668 -498.00098 rmoveto
          -105 callsubr
          endchar
        </CharString>
        <CharString name="s0244">
          732 530 rmoveto
          -107 callsubr
          14.00586 110.00098 rmoveto
          -106 callsubr
          -668 -498.00098 rmoveto
          -105 callsubr
          endchar
        </CharString>
        <CharString name="s0245">
          732 530 rmoveto
          -107 callsubr
          14.00586 110.00098 rmoveto
          -106 callsubr
          -668 -498.00098 rmoveto
          -105 callsubr
          endchar
        </CharString>
        <CharString name="s0246">
          732 530 rmoveto
          -107 callsubr
          14.00586 110.00098 rmoveto
          -106 callsubr
          -668 -498.00098 rmoveto
          -105 callsubr
          endchar
        </CharString>
        <CharString name="s0247">
          732 530 rmoveto
          -107 callsubr
          14.00586 110.00098 rmoveto
          -106 callsubr
          -668 -498.00098 rmoveto
          -105 callsubr
          endchar
        </CharString>
        <CharString name="s0248">
          732 530 rmoveto
          -107 callsubr
          14.00586 110.00098 rmoveto
          -106 callsubr
          -668 -498.00098 rmoveto
          -105 callsubr
          endchar
        </CharString>
        <CharString name="s0249">
          732 530 rmoveto
          -107 callsubr
          14.00586 110.00098 rmoveto
          -106 callsubr
          -668 -498.00098 rmoveto
          -105 callsubr
          endchar
        </CharString>
        <CharString name="s0250">
          732 530 rmoveto
          -107 callsubr
          14.00586 110.00098 rmoveto
          -106 callsubr
          -668 -498.00098 rmoveto
          -105 callsubr
          endchar
        </CharString>
        <CharString name="s0251">
          732 530 rmoveto
          -107 callsubr
          14.00586 110.00098 rmoveto
          -106 callsubr
          -668 -498.00098 rmoveto
          -105 callsubr
          endchar
        </CharString>
        <CharString name="s0252">
          732 530 rmoveto
          -107 callsubr
          14.00586 110.00098 rmoveto
          -106 callsubr
          -668 -498.00098 rmoveto
          -105 callsubr
          endchar
        </CharString>
        <CharString name="s0253">
          732 530 rmoveto
          -107 callsubr
          14.00586 110.00098 rmoveto
          -106 callsubr
          -668 -498.00098 rmoveto
          -105 callsubr
          endchar
        </CharString>
        <CharString name="s0254">
          732 530 rmoveto
          -107 callsubr
          14.00586 110.00098 rmoveto
          -106 callsubr
          -668 -498.00098 rmoveto
          -105 callsubr
          endchar
        </CharString>
        <CharString name="s0255">
          732 530 rmoveto
          -107 callsubr
          14.00586 110.00098 rmoveto
          -106 callsubr
          -668 -498.00098 rmoveto
          -105 callsubr
          endchar
        </CharString>
        <CharString name="s0256">
          732 530 rmoveto
          -107 callsubr
          14.00586 110.00098 rmoveto
          -106 callsubr
          -668 -498.00098 rmoveto
          -105 callsubr
          endchar
        </CharString>
        <CharString name="s0257">
          732 530 rmoveto
          -107 callsubr
          14.00586 110.00098 rmoveto
          -106 callsubr
          -668 -498.00098 rmoveto
          -105 callsubr
          endchar
        </CharString>
        <CharString name="s0258">
          732 530 rmoveto
          -107 callsubr
          14.00586 110.00098 rmoveto
          -106 callsubr
          -668 -498.00098 rmoveto
          -105 callsubr
          endchar
        </CharString>
        <CharString name="s0259">
          732 530 rmoveto
          -107 callsubr
          14.00586 110.00098 rmoveto
          -106 callsubr
          -668 -498.00098 rmoveto
          -105 callsubr
          endchar
        </CharString>
        <CharString name="s0260">
          732 530 rmoveto
          -107 callsubr
          14.00586 110.00098 rmoveto
          -106 callsubr
          -668 -498.00098 rmoveto
          -105 callsubr
          endchar
        </CharString>
        <CharString name="s0261">
          732 530 rmoveto
          -107 callsubr
          14.00586 110.00098 rmoveto
          -106 callsubr
          -668 -498.00098 rmoveto
          -105 callsubr
          endchar
        </CharString>
        <CharString name="s0262">
          732 530 rmoveto
          -107 callsubr
          14.00586 110.00098 rmoveto
          -106 callsubr
          -668 -498.00098 rmoveto
          -105 callsubr
          endchar
        </CharString>
        <CharString name="s0263">
          732 530 rmoveto
          -107 callsubr
          14.00586 110.00098 rmoveto
          -106 callsubr
          -668 -498.00098 rmoveto
          -105 callsubr
          endchar
        </CharString>
        <CharString name="s0264">
          732 530 rmoveto
          -107 callsubr
          14.00586 110.00098 rmoveto
          -106 callsubr
          -668 -498.00098 rmoveto
          -105 callsubr
          endchar
        </CharString>
        <CharString name="s0265">
          732 530 rmoveto
          -107 callsubr
          14.00586 110.00098 rmoveto
          -106 callsubr
          -668 -498.00098 rmoveto
          -105 callsubr
          endchar
        </CharString>
        <CharString name="s0266">
          732 530 rmoveto
          -107 callsubr
          14.00586 110.00098 rmoveto
          -106 callsubr
          -668 -498.00098 rmoveto
          -105 callsubr
          endchar
        </CharString>
        <CharString name="s0267">
          732 530 rmoveto
          -107 callsubr
          14.00586 110.00098 rmoveto
          -106 callsubr
          -668 -498.00098 rmoveto
          -105 callsubr
          endchar
        </CharString>
        <CharString name="s0268">
          732 530 rmoveto
          -107 callsubr
          14.00586 110.00098 rmoveto
          -106 callsubr
          -668 -498.00098 rmoveto
          -105 callsubr
          endchar
        </CharString>
        <CharString name="s0269">
          732 530 rmoveto
          -107 callsubr
          14.00586 110.00098 rmoveto
          -106 callsubr
          -668 -498.00098 rmoveto
          -105 callsubr
          endchar
        </CharString>
        <CharString name="s0270">
          732 530 rmoveto
          -107 callsubr
          14.00586 110.00098 rmoveto
          -106 callsubr
          -668 -498.00098 rmoveto
          -105 callsubr
          endchar
        </CharString>
        <CharString name="s0271">
          732 530 rmoveto
          -107 callsubr
          14.00586 110.00098 rmoveto
          -106 callsubr
          -668 -498.00098 rmoveto
          -105 callsubr
          endchar
        </CharString>
        <CharString name="s0272">
          732 530 rmoveto
          -107 callsubr
          14.00586 110.00098 rmoveto
          -106 callsubr
          -668 -498.00098 rmoveto
          -105 callsubr
          endchar
        </CharString>
        <CharString name="s0273">
          732 530 rmoveto
          -107 callsubr
          14.00586 110.00098 rmoveto
          -106 callsubr
          -668 -498.00098 rmoveto
          -105 callsubr
          endchar
        </CharString>
        <CharString name="s0274">
          732 530 rmoveto
          -107 callsubr
          14.00586 110.00098 rmoveto
          -106 callsubr
          -668 -498.00098 rmoveto
          -105 callsubr
          endchar
        </CharString>
        <CharString name="s0275">
          732 530 rmoveto
          -107 callsubr
          14.00586 110.00098 rmoveto
          -106 callsubr
          -668 -498.00098 rmoveto
          -105 callsubr
          endchar
        </CharString>
        <CharString name="s0276">
          732 530 rmoveto
          -107 callsubr
          14.00586 110.00098 rmoveto
          -106 callsubr
          -668 -498.00098 rmoveto
          -105 callsubr
          endchar
        </CharString>
        <CharString name="s0277">
          732 530 rmoveto
          -107 callsubr
          14.00586 110.00098 rmoveto
          -106 callsubr
          -668 -498.00098 rmoveto
          -105 callsubr
          endchar
        </CharString>
        <CharString name="s0278">
          732 530 rmoveto
          -107 callsubr
          14.00586 110.00098 rmoveto
          -106 callsubr
          -668 -498.00098 rmoveto
          -105 callsubr
          endchar
        </CharString>
        <CharString name="s0279">
          732 530 rmoveto
          -107 callsubr
          14.00586 110.00098 rmoveto
          -106 callsubr
          -668 -498.00098 rmoveto
          -105 callsubr
          endchar
        </CharString>
        <CharString name="s0280">
          732 530 rmoveto
          -107 callsubr
          14.00586 110.00098 rmoveto
          -106 callsubr
          -668 -498.00098 rmoveto
          -105 callsubr
          endchar
        </CharString>
        <CharString name="s0281">
          732 530 rmoveto
          -107 callsubr
          14.00586 110.00098 rmoveto
          -106 callsubr
          -668 -498.00098 rmoveto
          -105 callsubr
          endchar
        </CharString>
        <CharString name="s0282">
          732 530 rmoveto
          -107 callsubr
          14.00586 110.00098 rmoveto
          -106 callsubr
          -668 -498.00098 rmoveto
          -105 callsubr
          endchar
        </CharString>
        <CharString name="s0283">
          732 530 rmoveto
          -107 callsubr
          14.00586 110.00098 rmoveto
          -106 callsubr
          -668 -498.00098 rmoveto
          -105 callsubr
          endchar
        </CharString>
        <CharString name="s0284">
          732 530 rmoveto
          -107 callsubr
          14.00586 110.00098 rmoveto
          -106 callsubr
          -668 -498.00098 rmoveto
          -105 callsubr
          endchar
        </CharString>
        <CharString name="s0285">
          732 530 rmoveto
          -107 callsubr
          14.00586 110.00098 rmoveto
          -106 callsubr
          -668 -498.00098 rmoveto
          -105 callsubr
          endchar
        </CharString>
        <CharString name="s0286">
          732 530 rmoveto
          -107 callsubr
          14.00586 110.00098 rmoveto
          -106 callsubr
          -668 -498.00098 rmoveto
          -105 callsubr
          endchar
        </CharString>
        <CharString name="s0287">
          732 530 rmoveto
          -107 callsubr
          14.00586 110.00098 rmoveto
          -106 callsubr
          -668 -498.00098 rmoveto
          -105 callsubr
          endchar
        </CharString>
        <CharString name="s0288">
          732 530 rmoveto
          -107 callsubr
          14.00586 110.00098 rmoveto
          -106 callsubr
          -668 -498.00098 rmoveto
          -105 callsubr
          endchar
        </CharString>
        <CharString name="s0289">
          732 530 rmoveto
          -107 callsubr
          14.00586 110.00098 rmoveto
          -106 callsubr
          -668 -498.00098 rmoveto
          -105 callsubr
          endchar
        </CharString>
        <CharString name="s0290">
          732 530 rmoveto
          -107 callsubr
          14.00586 110.00098 rmoveto
          -106 callsubr
          -668 -498.00098 rmoveto
          -105 callsubr
          endchar
        </CharString>
        <CharString name="s0291">
          732 530 rmoveto
          -107 callsubr
          14.00586 110.00098 rmoveto
          -106 callsubr
          -668 -498.00098 rmoveto
          -105 callsubr
          endchar
        </CharString>
        <CharString name="s0292">
          732 530 rmoveto
          -107 callsubr
          14.00586 110.00098 rmoveto
          -106 callsubr
          -668 -498.00098 rmoveto
          -105 callsubr
          endchar
        </CharString>
        <CharString name="s0293">
          732 530 rmoveto
          -107 callsubr
          14.00586 110.00098 rmoveto
          -106 callsubr
          -668 -498.00098 rmoveto
          -105 callsubr
          endchar
        </CharString>
        <CharString name="s0294">
          732 530 rmoveto
          -107 callsubr
          14.00586 110.00098 rmoveto
          -106 callsubr
          -668 -498.00098 rmoveto
          -105 callsubr
          endchar
        </CharString>
        <CharString name="s0295">
          732 530 rmoveto
          -107 callsubr
          14.00586 110.00098 rmoveto
          -106 callsubr
          -668 -498.00098 rmoveto
          -105 callsubr
          endchar
        </CharString>
        <CharString name="s0296">
          732 530 rmoveto
          -107 callsubr
          14.00586 110.00098 rmoveto
          -106 callsubr
          -668 -498.00098 rmoveto
          -105 callsubr
          endchar
        </CharString>
        <CharString name="s0297">
          732 530 rmoveto
          -107 callsubr
          14.00586 110.00098 rmoveto
          -106 callsubr
          -668 -498.00098 rmoveto
          -105 callsubr
          endchar
        </CharString>
        <CharString name="s0298">
          732 530 rmoveto
          -107 callsubr
          14.00586 110.00098 rmoveto
          -106 callsubr
          -668 -498.00098 rmoveto
          -105 callsubr
          endchar
        </CharString>
        <CharString name="s0299">
          732 530 rmoveto
          -107 callsubr
          14.00586 110.00098 rmoveto
          -106 callsubr
          -668 -498.00098 rmoveto
          -105 callsubr
          endchar
        </CharString>
        <CharString name="s0300">
          732 530 rmoveto
          -107 callsubr
          14.00586 110.00098 rmoveto
          -106 callsubr
          -668 -498.00098 rmoveto
          -105 callsubr
          endchar
        </CharString>
        <CharString name="s0301">
          732 530 rmoveto
          -107 callsubr
          14.00586 110.00098 rmoveto
          -106 callsubr
          -668 -498.00098 rmoveto
          -105 callsubr
          endchar
        </CharString>
        <CharString name="s0302">
          732 530 rmoveto
          -107 callsubr
          14.00586 110.00098 rmoveto
          -106 callsubr
          -668 -498.00098 rmoveto
          -105 callsubr
          endchar
        </CharString>
        <CharString name="s0303">
          732 530 rmoveto
          -107 callsubr
          14.00586 110.00098 rmoveto
          -106 callsubr
          -668 -498.00098 rmoveto
          -105 callsubr
          endchar
        </CharString>
        <CharString name="s0304">
          732 530 rmoveto
          -107 callsubr
          14.00586 110.00098 rmoveto
          -106 callsubr
          -668 -498.00098 rmoveto
          -105 callsubr
          endchar
        </CharString>
        <CharString name="s0305">
          732 530 rmoveto
          -107 callsubr
          14.00586 110.00098 rmoveto
          -106 callsubr
          -668 -498.00098 rmoveto
          -105 callsubr
          endchar
        </CharString>
        <CharString name="s0306">
          732 530 rmoveto
          -107 callsubr
          14.00586 110.00098 rmoveto
          -106 callsubr
          -668 -498.00098 rmoveto
          -105 callsubr
          endchar
        </CharString>
        <CharString name="s0307">
          732 530 rmoveto
          -107 callsubr
          14.00586 110.00098 rmoveto
          -106 callsubr
          -668 -498.00098 rmoveto
          -105 callsubr
          endchar
        </CharString>
        <CharString name="s0308">
          732 530 rmoveto
          -107 callsubr
          14.00586 110.00098 rmoveto
          -106 callsubr
          -668 -498.00098 rmoveto
          -105 callsubr
          endchar
        </CharString>
        <CharString name="s0309">
          732 530 rmoveto
          -107 callsubr
          14.00586 110.00098 rmoveto
          -106 callsubr
          -668 -498.00098 rmoveto
          -105 callsubr
          endchar
        </CharString>
        <CharString name="s0310">
          732 530 rmoveto
          -107 callsubr
          14.00586 110.00098 rmoveto
          -106 callsubr
          -668 -498.00098 rmoveto
          -105 callsubr
          endchar
        </CharString>
        <CharString name="s0311">
          732 530 rmoveto
          -107 callsubr
          14.00586 110.00098 rmoveto
          -106 callsubr
          -668 -498.00098 rmoveto
          -105 callsubr
          endchar
        </CharString>
        <CharString name="s0312">
          732 530 rmoveto
          -107 callsubr
          14.00586 110.00098 rmoveto
          -106 callsubr
          -668 -498.00098 rmoveto
          -105 callsubr
          endchar
        </CharString>
        <CharString name="s0313">
          732 530 rmoveto
          -107 callsubr
          14.00586 110.00098 rmoveto
          -106 callsubr
          -668 -498.00098 rmoveto
          -105 callsubr
          endchar
        </CharString>
        <CharString name="s0314">
          732 530 rmoveto
          -107 callsubr
          14.00586 110.00098 rmoveto
          -106 callsubr
          -668 -498.00098 rmoveto
          -105 callsubr
          endchar
        </CharString>
        <CharString name="s0315">
          732 530 rmoveto
          -107 callsubr
          14.00586 110.00098 rmoveto
          -106 callsubr
          -668 -498.00098 rmoveto
          -105 callsubr
          endchar
        </CharString>
        <CharString name="s0316">
          732 530 rmoveto
          -107 callsubr
          14.00586 110.00098 rmoveto
          -106 callsubr
          -668 -498.00098 rmoveto
          -105 callsubr
          endchar
        </CharString>
        <CharString name="s0317">
          732 530 rmoveto
          -107 callsubr
          14.00586 110.00098 rmoveto
          -106 callsubr
          -668 -498.00098 rmoveto
          -105 callsubr
          endchar
        </CharString>
        <CharString name="s0318">
          732 530 rmoveto
          -107 callsubr
          14.00586 110.00098 rmoveto
          -106 callsubr
          -668 -498.00098 rmoveto
          -105 callsubr
          endchar
        </CharString>
        <CharString name="s0319">
          732 530 rmoveto
          -107 callsubr
          14.00586 110.00098 rmoveto
          -106 callsubr
          -668 -498.00098 rmoveto
          -105 callsubr
          endchar
        </CharString>
        <CharString name="s0320">
          732 530 rmoveto
          -107 callsubr
          14.00586 110.00098 rmoveto
          -106 callsubr
          -668 -498.00098 rmoveto
          -105 callsubr
          endchar
        </CharString>
        <CharString name="s0321">
          732 530 rmoveto
          -107 callsubr
          14.00586 110.00098 rmoveto
          -106 callsubr
          -668 -498.00098 rmoveto
          -105 callsubr
          endchar
        </CharString>
        <CharString name="s0322">
          732 530 rmoveto
          -107 callsubr
          14.00586 110.00098 rmoveto
          -106 callsubr
          -668 -498.00098 rmoveto
          -105 callsubr
          endchar
        </CharString>
        <CharString name="s0323">
          732 530 rmoveto
          -107 callsubr
          14.00586 110.00098 rmoveto
          -106 callsubr
          -668 -498.00098 rmoveto
          -105 callsubr
          endchar
        </CharString>
        <CharString name="s0324">
          732 530 rmoveto
          -107 callsubr
          14.00586 110.00098 rmoveto
          -106 callsubr
          -668 -498.00098 rmoveto
          -105 callsubr
          endchar
        </CharString>
        <CharString name="s0325">
          732 530 rmoveto
          -107 callsubr
          14.00586 110.00098 rmoveto
          -106 callsubr
          -668 -498.00098 rmoveto
          -105 callsubr
          endchar
        </CharString>
        <CharString name="s0326">
          732 530 rmoveto
          -107 callsubr
          14.00586 110.00098 rmoveto
          -106 callsubr
          -668 -498.00098 rmoveto
          -105 callsubr
          endchar
        </CharString>
        <CharString name="s0327">
          732 530 rmoveto
          -107 callsubr
          14.00586 110.00098 rmoveto
          -106 callsubr
          -668 -498.00098 rmoveto
          -105 callsubr
          endchar
        </CharString>
        <CharString name="s0328">
          732 530 rmoveto
          -107 callsubr
          14.00586 110.00098 rmoveto
          -106 callsubr
          -668 -498.00098 rmoveto
          -105 callsubr
          endchar
        </CharString>
        <CharString name="s0329">
          732 530 rmoveto
          -107 callsubr
          14.00586 110.00098 rmoveto
          -106 callsubr
          -668 -498.00098 rmoveto
          -105 callsubr
          endchar
        </CharString>
        <CharString name="s0330">
          732 530 rmoveto
          -107 callsubr
          14.00586 110.00098 rmoveto
          -106 callsubr
          -668 -498.00098 rmoveto
          -105 callsubr
          endchar
        </CharString>
        <CharString name="s0331">
          732 530 rmoveto
          -107 callsubr
          14.00586 110.00098 rmoveto
          -106 callsubr
          -668 -498.00098 rmoveto
          -105 callsubr
          endchar
        </CharString>
        <CharString name="s0332">
          732 530 rmoveto
          -107 callsubr
          14.00586 110.00098 rmoveto
          -106 callsubr
          -668 -498.00098 rmoveto
          -105 callsubr
          endchar
        </CharString>
        <CharString name="s0333">
          732 530 rmoveto
          -107 callsubr
          14.00586 110.00098 rmoveto
          -106 callsubr
          -668 -498.00098 rmoveto
          -105 callsubr
          endchar
        </CharString>
        <CharString name="s0334">
          732 530 rmoveto
          -107 callsubr
          14.00586 110.00098 rmoveto
          -106 callsubr
          -668 -498.00098 rmoveto
          -105 callsubr
          endchar
        </CharString>
        <CharString name="s0335">
          732 530 rmoveto
          -107 callsubr
          14.00586 110.00098 rmoveto
          -106 callsubr
          -668 -498.00098 rmoveto
          -105 callsubr
          endchar
        </CharString>
        <CharString name="s0336">
          732 530 rmoveto
          -107 callsubr
          14.00586 110.00098 rmoveto
          -106 callsubr
          -668 -498.00098 rmoveto
          -105 callsubr
          endchar
        </CharString>
        <CharString name="s0337">
          732 530 rmoveto
          -107 callsubr
          14.00586 110.00098 rmoveto
          -106 callsubr
          -668 -498.00098 rmoveto
          -105 callsubr
          endchar
        </CharString>
        <CharString name="s0338">
          732 530 rmoveto
          -107 callsubr
          14.00586 110.00098 rmoveto
          -106 callsubr
          -668 -498.00098 rmoveto
          -105 callsubr
          endchar
        </CharString>
        <CharString name="s0339">
          732 530 rmoveto
          -107 callsubr
          14.00586 110.00098 rmoveto
          -106 callsubr
          -668 -498.00098 rmoveto
          -105 callsubr
          endchar
        </CharString>
        <CharString name="s0340">
          732 530 rmoveto
          -107 callsubr
          14.00586 110.00098 rmoveto
          -106 callsubr
          -668 -498.00098 rmoveto
          -105 callsubr
          endchar
        </CharString>
        <CharString name="s0341">
          732 530 rmoveto
          -107 callsubr
          14.00586 110.00098 rmoveto
          -106 callsubr
          -668 -498.00098 rmoveto
          -105 callsubr
          endchar
        </CharString>
        <CharString name="s0342">
          732 530 rmoveto
          -107 callsubr
          14.00586 110.00098 rmoveto
          -106 callsubr
          -668 -498.00098 rmoveto
          -105 callsubr
          endchar
        </CharString>
        <CharString name="s0343">
          732 530 rmoveto
          -107 callsubr
          14.00586 110.00098 rmoveto
          -106 callsubr
          -668 -498.00098 rmoveto
          -105 callsubr
          endchar
        </CharString>
        <CharString name="s0344">
          732 530 rmoveto
          -107 callsubr
          14.00586 110.00098 rmoveto
          -106 callsubr
          -668 -498.00098 rmoveto
          -105 callsubr
          endchar
        </CharString>
        <CharString name="s0345">
          732 530 rmoveto
          -107 callsubr
          14.00586 110.00098 rmoveto
          -106 callsubr
          -668 -498.00098 rmoveto
          -105 callsubr
          endchar
        </CharString>
        <CharString name="s0346">
          732 530 rmoveto
          -107 callsubr
          14.00586 110.00098 rmoveto
          -106 callsubr
          -668 -498.00098 rmoveto
          -105 callsubr
          endchar
        </CharString>
        <CharString name="s0347">
          732 530 rmoveto
          -107 callsubr
          14.00586 110.00098 rmoveto
          -106 callsubr
          -668 -498.00098 rmoveto
          -105 callsubr
          endchar
        </CharString>
        <CharString name="s0348">
          732 530 rmoveto
          -107 callsubr
          14.00586 110.00098 rmoveto
          -106 callsubr
          -668 -498.00098 rmoveto
          -105 callsubr
          endchar
        </CharString>
        <CharString name="s0349">
          732 530 rmoveto
          -107 callsubr
          14.00586 110.00098 rmoveto
          -106 callsubr
          -668 -498.00098 rmoveto
          -105 callsubr
          endchar
        </CharString>
        <CharString name="s0350">
          732 530 rmoveto
          -107 callsubr
          14.00586 110.00098 rmoveto
          -106 callsubr
          -668 -498.00098 rmoveto
          -105 callsubr
          endchar
        </CharString>
        <CharString name="s0351">
          732 530 rmoveto
          -107 callsubr
          14.00586 110.00098 rmoveto
          -106 callsubr
          -668 -498.00098 rmoveto
          -105 callsubr
          endchar
        </CharString>
        <CharString name="s0352">
          732 530 rmoveto
          -107 callsubr
          14.00586 110.00098 rmoveto
          -106 callsubr
          -668 -498.00098 rmoveto
          -105 callsubr
          endchar
        </CharString>
        <CharString name="s0353">
          732 530 rmoveto
          -107 callsubr
          14.00586 110.00098 rmoveto
          -106 callsubr
          -668 -498.00098 rmoveto
          -105 callsubr
          endchar
        </CharString>
        <CharString name="s0354">
          732 530 rmoveto
          -107 callsubr
          14.00586 110.00098 rmoveto
          -106 callsubr
          -668 -498.00098 rmoveto
          -105 callsubr
          endchar
        </CharString>
        <CharString name="s0355">
          732 530 rmoveto
          -107 callsubr
          14.00586 110.00098 rmoveto
          -106 callsubr
          -668 -498.00098 rmoveto
          -105 callsubr
          endchar
        </CharString>
        <CharString name="s0356">
          732 530 rmoveto
          -107 callsubr
          14.00586 110.00098 rmoveto
          -106 callsubr
          -668 -498.00098 rmoveto
          -105 callsubr
          endchar
        </CharString>
        <CharString name="s0357">
          732 530 rmoveto
          -107 callsubr
          14.00586 110.00098 rmoveto
          -106 callsubr
          -668 -498.00098 rmoveto
          -105 callsubr
          endchar
        </CharString>
        <CharString name="s0358">
          732 530 rmoveto
          -107 callsubr
          14.00586 110.00098 rmoveto
          -106 callsubr
          -668 -498.00098 rmoveto
          -105 callsubr
          endchar
        </CharString>
        <CharString name="s0359">
          732 530 rmoveto
          -107 callsubr
          14.00586 110.00098 rmoveto
          -106 callsubr
          -668 -498.00098 rmoveto
          -105 callsubr
          endchar
        </CharString>
        <CharString name="s0360">
          732 530 rmoveto
          -107 callsubr
          14.00586 110.00098 rmoveto
          -106 callsubr
          -668 -498.00098 rmoveto
          -105 callsubr
          endchar
        </CharString>
        <CharString name="s0361">
          732 530 rmoveto
          -107 callsubr
          14.00586 110.00098 rmoveto
          -106 callsubr
          -668 -498.00098 rmoveto
          -105 callsubr
          endchar
        </CharString>
        <CharString name="s0362">
          732 530 rmoveto
          -107 callsubr
          14.00586 110.00098 rmoveto
          -106 callsubr
          -668 -498.00098 rmoveto
          -105 callsubr
          endchar
        </CharString>
        <CharString name="s0363">
          732 530 rmoveto
          -107 callsubr
          14.00586 110.00098 rmoveto
          -106 callsubr
          -668 -498.00098 rmoveto
          -105 callsubr
          endchar
        </CharString>
        <CharString name="s0364">
          732 530 rmoveto
          -107 callsubr
          14.00586 110.00098 rmoveto
          -106 callsubr
          -668 -498.00098 rmoveto
          -105 callsubr
          endchar
        </CharString>
        <CharString name="s0365">
          732 530 rmoveto
          -107 callsubr
          14.00586 110.00098 rmoveto
          -106 callsubr
          -668 -498.00098 rmoveto
          -105 callsubr
          endchar
        </CharString>
        <CharString name="s0366">
          732 530 rmoveto
          -107 callsubr
          14.00586 110.00098 rmoveto
          -106 callsubr
          -668 -498.00098 rmoveto
          -105 callsubr
          endchar
        </CharString>
        <CharString name="s0367">
          732 530 rmoveto
          -107 callsubr
          14.00586 110.00098 rmoveto
          -106 callsubr
          -668 -498.00098 rmoveto
          -105 callsubr
          endchar
        </CharString>
        <CharString name="s0368">
          732 530 rmoveto
          -107 callsubr
          14.00586 110.00098 rmoveto
          -106 callsubr
          -668 -498.00098 rmoveto
          -105 callsubr
          endchar
        </CharString>
        <CharString name="s0369">
          732 530 rmoveto
          -107 callsubr
          14.00586 110.00098 rmoveto
          -106 callsubr
          -668 -498.00098 rmoveto
          -105 callsubr
          endchar
        </CharString>
        <CharString name="s0370">
          732 530 rmoveto
          -107 callsubr
          14.00586 110.00098 rmoveto
          -106 callsubr
          -668 -498.00098 rmoveto
          -105 callsubr
          endchar
        </CharString>
        <CharString name="s0371">
          732 530 rmoveto
          -107 callsubr
          14.00586 110.00098 rmoveto
          -106 callsubr
          -668 -498.00098 rmoveto
          -105 callsubr
          endchar
        </CharString>
        <CharString name="s0372">
          732 530 rmoveto
          -107 callsubr
          14.00586 110.00098 rmoveto
          -106 callsubr
          -668 -498.00098 rmoveto
          -105 callsubr
          endchar
        </CharString>
        <CharString name="s0373">
          732 530 rmoveto
          -107 callsubr
          14.00586 110.00098 rmoveto
          -106 callsubr
          -668 -498.00098 rmoveto
          -105 callsubr
          endchar
        </CharString>
        <CharString name="s0374">
          732 530 rmoveto
          -107 callsubr
          14.00586 110.00098 rmoveto
          -106 callsubr
          -668 -498.00098 rmoveto
          -105 callsubr
          endchar
        </CharString>
        <CharString name="s0375">
          732 530 rmoveto
          -107 callsubr
          14.00586 110.00098 rmoveto
          -106 callsubr
          -668 -498.00098 rmoveto
          -105 callsubr
          endchar
        </CharString>
        <CharString name="s0376">
          732 530 rmoveto
          -107 callsubr
          14.00586 110.00098 rmoveto
          -106 callsubr
          -668 -498.00098 rmoveto
          -105 callsubr
          endchar
        </CharString>
        <CharString name="s0377">
          732 530 rmoveto
          -107 callsubr
          14.00586 110.00098 rmoveto
          -106 callsubr
          -668 -498.00098 rmoveto
          -105 callsubr
          endchar
        </CharString>
        <CharString name="s0378">
          732 530 rmoveto
          -107 callsubr
          14.00586 110.00098 rmoveto
          -106 callsubr
          -668 -498.00098 rmoveto
          -105 callsubr
          endchar
        </CharString>
        <CharString name="s0379">
          732 530 rmoveto
          -107 callsubr
          14.00586 110.00098 rmoveto
          -106 callsubr
          -668 -498.00098 rmoveto
          -105 callsubr
          endchar
        </CharString>
        <CharString name="s0380">
          732 530 rmoveto
          -107 callsubr
          14.00586 110.00098 rmoveto
          -106 callsubr
          -668 -498.00098 rmoveto
          -105 callsubr
          endchar
        </CharString>
        <CharString name="s0381">
          732 530 rmoveto
          -107 callsubr
          14.00586 110.00098 rmoveto
          -106 callsubr
          -668 -498.00098 rmoveto
          -105 callsubr
          endchar
        </CharString>
        <CharString name="s0382">
          732 530 rmoveto
          -107 callsubr
          14.00586 110.00098 rmoveto
          -106 callsubr
          -668 -498.00098 rmoveto
          -105 callsubr
          endchar
        </CharString>
        <CharString name="s0383">
          732 530 rmoveto
          -107 callsubr
          14.00586 110.00098 rmoveto
          -106 callsubr
          -668 -498.00098 rmoveto
          -105 callsubr
          endchar
        </CharString>
        <CharString name="s0384">
          732 530 rmoveto
          -107 callsubr
          14.00586 110.00098 rmoveto
          -106 callsubr
          -668 -498.00098 rmoveto
          -105 callsubr
          endchar
        </CharString>
        <CharString name="s0385">
          732 530 rmoveto
          -107 callsubr
          14.00586 110.00098 rmoveto
          -106 callsubr
          -668 -498.00098 rmoveto
          -105 callsubr
          endchar
        </CharString>
        <CharString name="s0386">
          732 530 rmoveto
          -107 callsubr
          14.00586 110.00098 rmoveto
          -106 callsubr
          -668 -498.00098 rmoveto
          -105 callsubr
          endchar
        </CharString>
        <CharString name="s0387">
          732 530 rmoveto
          -107 callsubr
          14.00586 110.00098 rmoveto
          -106 callsubr
          -668 -498.00098 rmoveto
          -105 callsubr
          endchar
        </CharString>
        <CharString name="s0388">
          732 530 rmoveto
          -107 callsubr
          14.00586 110.00098 rmoveto
          -106 callsubr
          -668 -498.00098 rmoveto
          -105 callsubr
          endchar
        </CharString>
        <CharString name="s0389">
          732 530 rmoveto
          -107 callsubr
          14.00586 110.00098 rmoveto
          -106 callsubr
          -668 -498.00098 rmoveto
          -105 callsubr
          endchar
        </CharString>
        <CharString name="s0390">
          732 530 rmoveto
          -107 callsubr
          14.00586 110.00098 rmoveto
          -106 callsubr
          -668 -498.00098 rmoveto
          -105 callsubr
          endchar
        </CharString>
        <CharString name="s0391">
          732 530 rmoveto
          -107 callsubr
          14.00586 110.00098 rmoveto
          -106 callsubr
          -668 -498.00098 rmoveto
          -105 callsubr
          endchar
        </CharString>
        <CharString name="s0392">
          732 530 rmoveto
          -107 callsubr
          14.00586 110.00098 rmoveto
          -106 callsubr
          -668 -498.00098 rmoveto
          -105 callsubr
          endchar
        </CharString>
        <CharString name="s0393">
          732 530 rmoveto
          -107 callsubr
          14.00586 110.00098 rmoveto
          -106 callsubr
          -668 -498.00098 rmoveto
          -105 callsubr
          endchar
        </CharString>
        <CharString name="s0394">
          732 530 rmoveto
          -107 callsubr
          14.00586 110.00098 rmoveto
          -106 callsubr
          -668 -498.00098 rmoveto
          -105 callsubr
          endchar
        </CharString>
        <CharString name="s0395">
          732 530 rmoveto
          -107 callsubr
          14.00586 110.00098 rmoveto
          -106 callsubr
          -668 -498.00098 rmoveto
          -105 callsubr
          endchar
        </CharString>
        <CharString name="s0396">
          732 530 rmoveto
          -107 callsubr
          14.00586 110.00098 rmoveto
          -106 callsubr
          -668 -498.00098 rmoveto
          -105 callsubr
          endchar
        </CharString>
        <CharString name="s0397">
          732 530 rmoveto
          -107 callsubr
          14.00586 110.00098 rmoveto
          -106 callsubr
          -668 -498.00098 rmoveto
          -105 callsubr
          endchar
        </CharString>
        <CharString name="s0398">
          732 530 rmoveto
          -107 callsubr
          14.00586 110.00098 rmoveto
          -106 callsubr
          -668 -498.00098 rmoveto
          -105 callsubr
          endchar
        </CharString>
        <CharString name="s0399">
          732 530 rmoveto
          -107 callsubr
          14.00586 110.00098 rmoveto
          -106 callsubr
          -668 -498.00098 rmoveto
          -105 callsubr
          endchar
        </CharString>
        <CharString name="s0400">
          732 530 rmoveto
          -107 callsubr
          14.00586 110.00098 rmoveto
          -106 callsubr
          -668 -498.00098 rmoveto
          -105 callsubr
          endchar
        </CharString>
        <CharString name="s0401">
          732 530 rmoveto
          -107 callsubr
          14.00586 110.00098 rmoveto
          -106 callsubr
          -668 -498.00098 rmoveto
          -105 callsubr
          endchar
        </CharString>
        <CharString name="s0402">
          732 530 rmoveto
          -107 callsubr
          14.00586 110.00098 rmoveto
          -106 callsubr
          -668 -498.00098 rmoveto
          -105 callsubr
          endchar
        </CharString>
        <CharString name="s0403">
          732 530 rmoveto
          -107 callsubr
          14.00586 110.00098 rmoveto
          -106 callsubr
          -668 -498.00098 rmoveto
          -105 callsubr
          endchar
        </CharString>
        <CharString name="s0404">
          732 530 rmoveto
          -107 callsubr
          14.00586 110.00098 rmoveto
          -106 callsubr
          -668 -498.00098 rmoveto
          -105 callsubr
          endchar
        </CharString>
        <CharString name="s0405">
          732 530 rmoveto
          -107 callsubr
          14.00586 110.00098 rmoveto
          -106 callsubr
          -668 -498.00098 rmoveto
          -105 callsubr
          endchar
        </CharString>
        <CharString name="s0406">
          732 530 rmoveto
          -107 callsubr
          14.00586 110.00098 rmoveto
          -106 callsubr
          -668 -498.00098 rmoveto
          -105 callsubr
          endchar
        </CharString>
        <CharString name="s0407">
          732 530 rmoveto
          -107 callsubr
          14.00586 110.00098 rmoveto
          -106 callsubr
          -668 -498.00098 rmoveto
          -105 callsubr
          endchar
        </CharString>
        <CharString name="s0408">
          732 530 rmoveto
          -107 callsubr
          14.00586 110.00098 rmoveto
          -106 callsubr
          -668 -498.00098 rmoveto
          -105 callsubr
          endchar
        </CharString>
        <CharString name="s0409">
          732 530 rmoveto
          -107 callsubr
          14.00586 110.00098 rmoveto
          -106 callsubr
          -668 -498.00098 rmoveto
          -105 callsubr
          endchar
        </CharString>
        <CharString name="s0410">
          732 530 rmoveto
          -107 callsubr
          14.00586 110.00098 rmoveto
          -106 callsubr
          -668 -498.00098 rmoveto
          -105 callsubr
          endchar
        </CharString>
        <CharString name="s0411">
          732 530 rmoveto
          -107 callsubr
          14.00586 110.00098 rmoveto
          -106 callsubr
          -668 -498.00098 rmoveto
          -105 callsubr
          endchar
        </CharString>
        <CharString name="s0412">
          732 530 rmoveto
          -107 callsubr
          14.00586 110.00098 rmoveto
          -106 callsubr
          -668 -498.00098 rmoveto
          -105 callsubr
          endchar
        </CharString>
        <CharString name="s0413">
          732 530 rmoveto
          -107 callsubr
          14.00586 110.00098 rmoveto
          -106 callsubr
          -668 -498.00098 rmoveto
          -105 callsubr
          endchar
        </CharString>
        <CharString name="s0414">
          732 530 rmoveto
          -107 callsubr
          14.00586 110.00098 rmoveto
          -106 callsubr
          -668 -498.00098 rmoveto
          -105 callsubr
          endchar
        </CharString>
        <CharString name="s0415">
          732 530 rmoveto
          -107 callsubr
          14.00586 110.00098 rmoveto
          -106 callsubr
          -668 -498.00098 rmoveto
          -105 callsubr
          endchar
        </CharString>
        <CharString name="s0416">
          732 530 rmoveto
          -107 callsubr
          14.00586 110.00098 rmoveto
          -106 callsubr
          -668 -498.00098 rmoveto
          -105 callsubr
          endchar
        </CharString>
        <CharString name="s0417">
          732 530 rmoveto
          -107 callsubr
          14.00586 110.00098 rmoveto
          -106 callsubr
          -668 -498.00098 rmoveto
          -105 callsubr
          endchar
        </CharString>
        <CharString name="s0418">
          732 530 rmoveto
          -107 callsubr
          14.00586 110.00098 rmoveto
          -106 callsubr
          -668 -498.00098 rmoveto
          -105 callsubr
          endchar
        </CharString>
        <CharString name="s0419">
          732 530 rmoveto
          -107 callsubr
          14.00586 110.00098 rmoveto
          -106 callsubr
          -668 -498.00098 rmoveto
          -105 callsubr
          endchar
        </CharString>
        <CharString name="s0420">
          732 530 rmoveto
          -107 callsubr
          14.00586 110.00098 rmoveto
          -106 callsubr
          -668 -498.00098 rmoveto
          -105 callsubr
          endchar
        </CharString>
        <CharString name="s0421">
          732 530 rmoveto
          -107 callsubr
          14.00586 110.00098 rmoveto
          -106 callsubr
          -668 -498.00098 rmoveto
          -105 callsubr
          endchar
        </CharString>
        <CharString name="s0422">
          732 530 rmoveto
          -107 callsubr
          14.00586 110.00098 rmoveto
          -106 callsubr
          -668 -498.00098 rmoveto
          -105 callsubr
          endchar
        </CharString>
        <CharString name="s0423">
          732 530 rmoveto
          -107 callsubr
          14.00586 110.00098 rmoveto
          -106 callsubr
          -668 -498.00098 rmoveto
          -105 callsubr
          endchar
        </CharString>
        <CharString name="s0424">
          732 530 rmoveto
          -107 callsubr
          14.00586 110.00098 rmoveto
          -106 callsubr
          -668 -498.00098 rmoveto
          -105 callsubr
          endchar
        </CharString>
        <CharString name="s0425">
          732 530 rmoveto
          -107 callsubr
          14.00586 110.00098 rmoveto
          -106 callsubr
          -668 -498.00098 rmoveto
          -105 callsubr
          endchar
        </CharString>
        <CharString name="s0426">
          732 530 rmoveto
          -107 callsubr
          14.00586 110.00098 rmoveto
          -106 callsubr
          -668 -498.00098 rmoveto
          -105 callsubr
          endchar
        </CharString>
        <CharString name="s0427">
          732 530 rmoveto
          -107 callsubr
          14.00586 110.00098 rmoveto
          -106 callsubr
          -668 -498.00098 rmoveto
          -105 callsubr
          endchar
        </CharString>
        <CharString name="s0428">
          732 530 rmoveto
          -107 callsubr
          14.00586 110.00098 rmoveto
          -106 callsubr
          -668 -498.00098 rmoveto
          -105 callsubr
          endchar
        </CharString>
        <CharString name="s0429">
          732 530 rmoveto
          -107 callsubr
          14.00586 110.00098 rmoveto
          -106 callsubr
          -668 -498.00098 rmoveto
          -105 callsubr
          endchar
        </CharString>
        <CharString name="s0430">
          732 530 rmoveto
          -107 callsubr
          14.00586 110.00098 rmoveto
          -106 callsubr
          -668 -498.00098 rmoveto
          -105 callsubr
          endchar
        </CharString>
        <CharString name="s0431">
          732 530 rmoveto
          -107 callsubr
          14.00586 110.00098 rmoveto
          -106 callsubr
          -668 -498.00098 rmoveto
          -105 callsubr
          endchar
        </CharString>
        <CharString name="s0432">
          732 530 rmoveto
          -107 callsubr
          14.00586 110.00098 rmoveto
          -106 callsubr
          -668 -498.00098 rmoveto
          -105 callsubr
          endchar
        </CharString>
        <CharString name="s0433">
          732 530 rmoveto
          -107 callsubr
          14.00586 110.00098 rmoveto
          -106 callsubr
          -668 -498.00098 rmoveto
          -105 callsubr
          endchar
        </CharString>
        <CharString name="s0434">
          732 530 rmoveto
          -107 callsubr
          14.00586 110.00098 rmoveto
          -106 callsubr
          -668 -498.00098 rmoveto
          -105 callsubr
          endchar
        </CharString>
        <CharString name="s0435">
          732 530 rmoveto
          -107 callsubr
          14.00586 110.00098 rmoveto
          -106 callsubr
          -668 -498.00098 rmoveto
          -105 callsubr
          endchar
        </CharString>
        <CharString name="s0436">
          732 530 rmoveto
          -107 callsubr
          14.00586 110.00098 rmoveto
          -106 callsubr
          -668 -498.00098 rmoveto
          -105 callsubr
          endchar
        </CharString>
        <CharString name="s0437">
          732 530 rmoveto
          -107 callsubr
          14.00586 110.00098 rmoveto
          -106 callsubr
          -668 -498.00098 rmoveto
          -105 callsubr
          endchar
        </CharString>
        <CharString name="s0438">
          732 530 rmoveto
          -107 callsubr
          14.00586 110.00098 rmoveto
          -106 callsubr
          -668 -498.00098 rmoveto
          -105 callsubr
          endchar
        </CharString>
        <CharString name="s0439">
          732 530 rmoveto
          -107 callsubr
          14.00586 110.00098 rmoveto
          -106 callsubr
          -668 -498.00098 rmoveto
          -105 callsubr
          endchar
        </CharString>
        <CharString name="s0440">
          732 530 rmoveto
          -107 callsubr
          14.00586 110.00098 rmoveto
          -106 callsubr
          -668 -498.00098 rmoveto
          -105 callsubr
          endchar
        </CharString>
        <CharString name="s0441">
          732 530 rmoveto
          -107 callsubr
          14.00586 110.00098 rmoveto
          -106 callsubr
          -668 -498.00098 rmoveto
          -105 callsubr
          endchar
        </CharString>
        <CharString name="s0442">
          732 530 rmoveto
          -107 callsubr
          14.00586 110.00098 rmoveto
          -106 callsubr
          -668 -498.00098 rmoveto
          -105 callsubr
          endchar
        </CharString>
        <CharString name="s0443">
          732 530 rmoveto
          -107 callsubr
          14.00586 110.00098 rmoveto
          -106 callsubr
          -668 -498.00098 rmoveto
          -105 callsubr
          endchar
        </CharString>
        <CharString name="s0444">
          732 530 rmoveto
          -107 callsubr
          14.00586 110.00098 rmoveto
          -106 callsubr
          -668 -498.00098 rmoveto
          -105 callsubr
          endchar
        </CharString>
        <CharString name="s0445">
          732 530 rmoveto
          -107 callsubr
          14.00586 110.00098 rmoveto
          -106 callsubr
          -668 -498.00098 rmoveto
          -105 callsubr
          endchar
        </CharString>
        <CharString name="s0446">
          732 530 rmoveto
          -107 callsubr
          14.00586 110.00098 rmoveto
          -106 callsubr
          -668 -498.00098 rmoveto
          -105 callsubr
          endchar
        </CharString>
        <CharString name="s0447">
          732 530 rmoveto
          -107 callsubr
          14.00586 110.00098 rmoveto
          -106 callsubr
          -668 -498.00098 rmoveto
          -105 callsubr
          endchar
        </CharString>
        <CharString name="s0448">
          732 530 rmoveto
          -107 callsubr
          14.00586 110.00098 rmoveto
          -106 callsubr
          -668 -498.00098 rmoveto
          -105 callsubr
          endchar
        </CharString>
        <CharString name="s0449">
          732 530 rmoveto
          -107 callsubr
          14.00586 110.00098 rmoveto
          -106 callsubr
          -668 -498.00098 rmoveto
          -105 callsubr
          endchar
        </CharString>
        <CharString name="s0450">
          732 530 rmoveto
          -107 callsubr
          14.00586 110.00098 rmoveto
          -106 callsubr
          -668 -498.00098 rmoveto
          -105 callsubr
          endchar
        </CharString>
        <CharString name="s0451">
          732 530 rmoveto
          -107 callsubr
          14.00586 110.00098 rmoveto
          -106 callsubr
          -668 -498.00098 rmoveto
          -105 callsubr
          endchar
        </CharString>
        <CharString name="s0452">
          732 530 rmoveto
          -107 callsubr
          14.00586 110.00098 rmoveto
          -106 callsubr
          -668 -498.00098 rmoveto
          -105 callsubr
          endchar
        </CharString>
        <CharString name="s0453">
          732 530 rmoveto
          -107 callsubr
          14.00586 110.00098 rmoveto
          -106 callsubr
          -668 -498.00098 rmoveto
          -105 callsubr
          endchar
        </CharString>
        <CharString name="s0454">
          732 530 rmoveto
          -107 callsubr
          14.00586 110.00098 rmoveto
          -106 callsubr
          -668 -498.00098 rmoveto
          -105 callsubr
          endchar
        </CharString>
        <CharString name="s0455">
          732 530 rmoveto
          -107 callsubr
          14.00586 110.00098 rmoveto
          -106 callsubr
          -668 -498.00098 rmoveto
          -105 callsubr
          endchar
        </CharString>
        <CharString name="s0456">
          732 530 rmoveto
          -107 callsubr
          14.00586 110.00098 rmoveto
          -106 callsubr
          -668 -498.00098 rmoveto
          -105 callsubr
          endchar
        </CharString>
        <CharString name="s0457">
          732 530 rmoveto
          -107 callsubr
          14.00586 110.00098 rmoveto
          -106 callsubr
          -668 -498.00098 rmoveto
          -105 callsubr
          endchar
        </CharString>
        <CharString name="s0458">
          732 530 rmoveto
          -107 callsubr
          14.00586 110.00098 rmoveto
          -106 callsubr
          -668 -498.00098 rmoveto
          -105 callsubr
          endchar
        </CharString>
        <CharString name="s0459">
          732 530 rmoveto
          -107 callsubr
          14.00586 110.00098 rmoveto
          -106 callsubr
          -668 -498.00098 rmoveto
          -105 callsubr
          endchar
        </CharString>
        <CharString name="s0460">
          732 530 rmoveto
          -107 callsubr
          14.00586 110.00098 rmoveto
          -106 callsubr
          -668 -498.00098 rmoveto
          -105 callsubr
          endchar
        </CharString>
        <CharString name="s0461">
          732 530 rmoveto
          -107 callsubr
          14.00586 110.00098 rmoveto
          -106 callsubr
          -668 -498.00098 rmoveto
          -105 callsubr
          endchar
        </CharString>
        <CharString name="s0462">
          732 530 rmoveto
          -107 callsubr
          14.00586 110.00098 rmoveto
          -106 callsubr
          -668 -498.00098 rmoveto
          -105 callsubr
          endchar
        </CharString>
        <CharString name="s0463">
          732 530 rmoveto
          -107 callsubr
          14.00586 110.00098 rmoveto
          -106 callsubr
          -668 -498.00098 rmoveto
          -105 callsubr
          endchar
        </CharString>
        <CharString name="s0464">
          732 530 rmoveto
          -107 callsubr
          14.00586 110.00098 rmoveto
          -106 callsubr
          -668 -498.00098 rmoveto
          -105 callsubr
          endchar
        </CharString>
        <CharString name="s0465">
          732 530 rmoveto
          -107 callsubr
          14.00586 110.00098 rmoveto
          -106 callsubr
          -668 -498.00098 rmoveto
          -105 callsubr
          endchar
        </CharString>
        <CharString name="s0466">
          732 530 rmoveto
          -107 callsubr
          14.00586 110.00098 rmoveto
          -106 callsubr
          -668 -498.00098 rmoveto
          -105 callsubr
          endchar
        </CharString>
        <CharString name="s0467">
          732 530 rmoveto
          -107 callsubr
          14.00586 110.00098 rmoveto
          -106 callsubr
          -668 -498.00098 rmoveto
          -105 callsubr
          endchar
        </CharString>
        <CharString name="s0468">
          732 530 rmoveto
          -107 callsubr
          14.00586 110.00098 rmoveto
          -106 callsubr
          -668 -498.00098 rmoveto
          -105 callsubr
          endchar
        </CharString>
        <CharString name="s0469">
          732 530 rmoveto
          -107 callsubr
          14.00586 110.00098 rmoveto
          -106 callsubr
          -668 -498.00098 rmoveto
          -105 callsubr
          endchar
        </CharString>
        <CharString name="s0470">
          732 530 rmoveto
          -107 callsubr
          14.00586 110.00098 rmoveto
          -106 callsubr
          -668 -498.00098 rmoveto
          -105 callsubr
          endchar
        </CharString>
        <CharString name="s0471">
          732 530 rmoveto
          -107 callsubr
          14.00586 110.00098 rmoveto
          -106 callsubr
          -668 -498.00098 rmoveto
          -105 callsubr
          endchar
        </CharString>
        <CharString name="s0472">
          732 530 rmoveto
          -107 callsubr
          14.00586 110.00098 rmoveto
          -106 callsubr
          -668 -498.00098 rmoveto
          -105 callsubr
          endchar
        </CharString>
        <CharString name="s0473">
          732 530 rmoveto
          -107 callsubr
          14.00586 110.00098 rmoveto
          -106 callsubr
          -668 -498.00098 rmoveto
          -105 callsubr
          endchar
        </CharString>
        <CharString name="s0474">
          732 530 rmoveto
          -107 callsubr
          14.00586 110.00098 rmoveto
          -106 callsubr
          -668 -498.00098 rmoveto
          -105 callsubr
          endchar
        </CharString>
        <CharString name="s0475">
          732 530 rmoveto
          -107 callsubr
          14.00586 110.00098 rmoveto
          -106 callsubr
          -668 -498.00098 rmoveto
          -105 callsubr
          endchar
        </CharString>
        <CharString name="s0476">
          732 530 rmoveto
          -107 callsubr
          14.00586 110.00098 rmoveto
          -106 callsubr
          -668 -498.00098 rmoveto
          -105 callsubr
          endchar
        </CharString>
        <CharString name="s0477">
          732 530 rmoveto
          -107 callsubr
          14.00586 110.00098 rmoveto
          -106 callsubr
          -668 -498.00098 rmoveto
          -105 callsubr
          endchar
        </CharString>
        <CharString name="s0478">
          732 530 rmoveto
          -107 callsubr
          14.00586 110.00098 rmoveto
          -106 callsubr
          -668 -498.00098 rmoveto
          -105 callsubr
          endchar
        </CharString>
        <CharString name="s0479">
          732 530 rmoveto
          -107 callsubr
          14.00586 110.00098 rmoveto
          -106 callsubr
          -668 -498.00098 rmoveto
          -105 callsubr
          endchar
        </CharString>
        <CharString name="s0480">
          732 530 rmoveto
          -107 callsubr
          14.00586 110.00098 rmoveto
          -106 callsubr
          -668 -498.00098 rmoveto
          -105 callsubr
          endchar
        </CharString>
        <CharString name="s0481">
          732 530 rmoveto
          -107 callsubr
          14.00586 110.00098 rmoveto
          -106 callsubr
          -668 -498.00098 rmoveto
          -105 callsubr
          endchar
        </CharString>
        <CharString name="s0482">
          732 530 rmoveto
          -107 callsubr
          14.00586 110.00098 rmoveto
          -106 callsubr
          -668 -498.00098 rmoveto
          -105 callsubr
          endchar
        </CharString>
        <CharString name="s0483">
          732 530 rmoveto
          -107 callsubr
          14.00586 110.00098 rmoveto
          -106 callsubr
          -668 -498.00098 rmoveto
          -105 callsubr
          endchar
        </CharString>
        <CharString name="s0484">
          732 530 rmoveto
          -107 callsubr
          14.00586 110.00098 rmoveto
          -106 callsubr
          -668 -498.00098 rmoveto
          -105 callsubr
          endchar
        </CharString>
        <CharString name="s0485">
          732 530 rmoveto
          -107 callsubr
          14.00586 110.00098 rmoveto
          -106 callsubr
          -668 -498.00098 rmoveto
          -105 callsubr
          endchar
        </CharString>
        <CharString name="s0486">
          732 530 rmoveto
          -107 callsubr
          14.00586 110.00098 rmoveto
          -106 callsubr
          -668 -498.00098 rmoveto
          -105 callsubr
          endchar
        </CharString>
        <CharString name="s0487">
          732 530 rmoveto
          -107 callsubr
          14.00586 110.00098 rmoveto
          -106 callsubr
          -668 -498.00098 rmoveto
          -105 callsubr
          endchar
        </CharString>
        <CharString name="s0488">
          732 530 rmoveto
          -107 callsubr
          14.00586 110.00098 rmoveto
          -106 callsubr
          -668 -498.00098 rmoveto
          -105 callsubr
          endchar
        </CharString>
        <CharString name="s0489">
          732 530 rmoveto
          -107 callsubr
          14.00586 110.00098 rmoveto
          -106 callsubr
          -668 -498.00098 rmoveto
          -105 callsubr
          endchar
        </CharString>
        <CharString name="s0490">
          732 530 rmoveto
          -107 callsubr
          14.00586 110.00098 rmoveto
          -106 callsubr
          -668 -498.00098 rmoveto
          -105 callsubr
          endchar
        </CharString>
        <CharString name="s0491">
          732 530 rmoveto
          -107 callsubr
          14.00586 110.00098 rmoveto
          -106 callsubr
          -668 -498.00098 rmoveto
          -105 callsubr
          endchar
        </CharString>
        <CharString name="s0492">
          732 530 rmoveto
          -107 callsubr
          14.00586 110.00098 rmoveto
          -106 callsubr
          -668 -498.00098 rmoveto
          -105 callsubr
          endchar
        </CharString>
        <CharString name="s0493">
          732 530 rmoveto
          -107 callsubr
          14.00586 110.00098 rmoveto
          -106 callsubr
          -668 -498.00098 rmoveto
          -105 callsubr
          endchar
        </CharString>
        <CharString name="s0494">
          732 530 rmoveto
          -107 callsubr
          14.00586 110.00098 rmoveto
          -106 callsubr
          -668 -498.00098 rmoveto
          -105 callsubr
          endchar
        </CharString>
        <CharString name="s0495">
          732 530 rmoveto
          -107 callsubr
          14.00586 110.00098 rmoveto
          -106 callsubr
          -668 -498.00098 rmoveto
          -105 callsubr
          endchar
        </CharString>
        <CharString name="s0496">
          732 530 rmoveto
          -107 callsubr
          14.00586 110.00098 rmoveto
          -106 callsubr
          -668 -498.00098 rmoveto
          -105 callsubr
          endchar
        </CharString>
        <CharString name="s0497">
          732 530 rmoveto
          -107 callsubr
          14.00586 110.00098 rmoveto
          -106 callsubr
          -668 -498.00098 rmoveto
          -105 callsubr
          endchar
        </CharString>
        <CharString name="s0498">
          732 530 rmoveto
          -107 callsubr
          14.00586 110.00098 rmoveto
          -106 callsubr
          -668 -498.00098 rmoveto
          -105 callsubr
          endchar
        </CharString>
        <CharString name="s0499">
          732 530 rmoveto
          -107 callsubr
          14.00586 110.00098 rmoveto
          -106 callsubr
          -668 -498.00098 rmoveto
          -105 callsubr
          endchar
        </CharString>
        <CharString name="s0500">
          732 530 rmoveto
          -107 callsubr
          14.00586 110.00098 rmoveto
          -106 callsubr
          -668 -498.00098 rmoveto
          -105 callsubr
          endchar
        </CharString>
        <CharString name="s0501">
          732 530 rmoveto
          -107 callsubr
          14.00586 110.00098 rmoveto
          -106 callsubr
          -668 -498.00098 rmoveto
          -105 callsubr
          endchar
        </CharString>
        <CharString name="s0502">
          732 530 rmoveto
          -107 callsubr
          14.00586 110.00098 rmoveto
          -106 callsubr
          -668 -498.00098 rmoveto
          -105 callsubr
          endchar
        </CharString>
        <CharString name="s0503">
          732 530 rmoveto
          -107 callsubr
          14.00586 110.00098 rmoveto
          -106 callsubr
          -668 -498.00098 rmoveto
          -105 callsubr
          endchar
        </CharString>
        <CharString name="s0504">
          732 530 rmoveto
          -107 callsubr
          14.00586 110.00098 rmoveto
          -106 callsubr
          -668 -498.00098 rmoveto
          -105 callsubr
          endchar
        </CharString>
        <CharString name="s0505">
          732 530 rmoveto
          -107 callsubr
          14.00586 110.00098 rmoveto
          -106 callsubr
          -668 -498.00098 rmoveto
          -105 callsubr
          endchar
        </CharString>
        <CharString name="s0506">
          732 530 rmoveto
          -107 callsubr
          14.00586 110.00098 rmoveto
          -106 callsubr
          -668 -498.00098 rmoveto
          -105 callsubr
          endchar
        </CharString>
        <CharString name="s0507">
          732 530 rmoveto
          -107 callsubr
          14.00586 110.00098 rmoveto
          -106 callsubr
          -668 -498.00098 rmoveto
          -105 callsubr
          endchar
        </CharString>
        <CharString name="s0508">
          732 530 rmoveto
          -107 callsubr
          14.00586 110.00098 rmoveto
          -106 callsubr
          -668 -498.00098 rmoveto
          -105 callsubr
          endchar
        </CharString>
        <CharString name="s0509">
          732 530 rmoveto
          -107 callsubr
          14.00586 110.00098 rmoveto
          -106 callsubr
          -668 -498.00098 rmoveto
          -105 callsubr
          endchar
        </CharString>
        <CharString name="s0510">
          732 530 rmoveto
          -107 callsubr
          14.00586 110.00098 rmoveto
          -106 callsubr
          -668 -498.00098 rmoveto
          -105 callsubr
          endchar
        </CharString>
        <CharString name="s0511">
          732 530 rmoveto
          -107 callsubr
          14.00586 110.00098 rmoveto
          -106 callsubr
          -668 -498.00098 rmoveto
          -105 callsubr
          endchar
        </CharString>
        <CharString name="s0512">
          732 530 rmoveto
          -107 callsubr
          14.00586 110.00098 rmoveto
          -106 callsubr
          -668 -498.00098 rmoveto
          -105 callsubr
          endchar
        </CharString>
        <CharString name="s0513">
          732 530 rmoveto
          -107 callsubr
          14.00586 110.00098 rmoveto
          -106 callsubr
          -668 -498.00098 rmoveto
          -105 callsubr
          endchar
        </CharString>
        <CharString name="s0514">
          732 530 rmoveto
          -107 callsubr
          14.00586 110.00098 rmoveto
          -106 callsubr
          -668 -498.00098 rmoveto
          -105 callsubr
          endchar
        </CharString>
        <CharString name="s0515">
          732 530 rmoveto
          -107 callsubr
          14.00586 110.00098 rmoveto
          -106 callsubr
          -668 -498.00098 rmoveto
          -105 callsubr
          endchar
        </CharString>
        <CharString name="s0516">
          732 530 rmoveto
          -107 callsubr
          14.00586 110.00098 rmoveto
          -106 callsubr
          -668 -498.00098 rmoveto
          -105 callsubr
          endchar
        </CharString>
        <CharString name="s0517">
          732 530 rmoveto
          -107 callsubr
          14.00586 110.00098 rmoveto
          -106 callsubr
          -668 -498.00098 rmoveto
          -105 callsubr
          endchar
        </CharString>
        <CharString name="s0518">
          732 530 rmoveto
          -107 callsubr
          14.00586 110.00098 rmoveto
          -106 callsubr
          -668 -498.00098 rmoveto
          -105 callsubr
          endchar
        </CharString>
        <CharString name="s0519">
          732 530 rmoveto
          -107 callsubr
          14.00586 110.00098 rmoveto
          -106 callsubr
          -668 -498.00098 rmoveto
          -105 callsubr
          endchar
        </CharString>
        <CharString name="s0520">
          732 530 rmoveto
          -107 callsubr
          14.00586 110.00098 rmoveto
          -106 callsubr
          -668 -498.00098 rmoveto
          -105 callsubr
          endchar
        </CharString>
        <CharString name="s0521">
          732 530 rmoveto
          -107 callsubr
          14.00586 110.00098 rmoveto
          -106 callsubr
          -668 -498.00098 rmoveto
          -105 callsubr
          endchar
        </CharString>
        <CharString name="s0522">
          732 530 rmoveto
          -107 callsubr
          14.00586 110.00098 rmoveto
          -106 callsubr
          -668 -498.00098 rmoveto
          -105 callsubr
          endchar
        </CharString>
        <CharString name="s0523">
          732 530 rmoveto
          -107 callsubr
          14.00586 110.00098 rmoveto
          -106 callsubr
          -668 -498.00098 rmoveto
          -105 callsubr
          endchar
        </CharString>
        <CharString name="s0524">
          732 530 rmoveto
          -107 callsubr
          14.00586 110.00098 rmoveto
          -106 callsubr
          -668 -498.00098 rmoveto
          -105 callsubr
          endchar
        </CharString>
        <CharString name="s0525">
          732 530 rmoveto
          -107 callsubr
          14.00586 110.00098 rmoveto
          -106 callsubr
          -668 -498.00098 rmoveto
          -105 callsubr
          endchar
        </CharString>
        <CharString name="s0526">
          732 530 rmoveto
          -107 callsubr
          14.00586 110.00098 rmoveto
          -106 callsubr
          -668 -498.00098 rmoveto
          -105 callsubr
          endchar
        </CharString>
        <CharString name="s0527">
          732 530 rmoveto
          -107 callsubr
          14.00586 110.00098 rmoveto
          -106 callsubr
          -668 -498.00098 rmoveto
          -105 callsubr
          endchar
        </CharString>
        <CharString name="s0528">
          732 530 rmoveto
          -107 callsubr
          14.00586 110.00098 rmoveto
          -106 callsubr
          -668 -498.00098 rmoveto
          -105 callsubr
          endchar
        </CharString>
        <CharString name="s0529">
          732 530 rmoveto
          -107 callsubr
          14.00586 110.00098 rmoveto
          -106 callsubr
          -668 -498.00098 rmoveto
          -105 callsubr
          endchar
        </CharString>
        <CharString name="s0530">
          732 530 rmoveto
          -107 callsubr
          14.00586 110.00098 rmoveto
          -106 callsubr
          -668 -498.00098 rmoveto
          -105 callsubr
          endchar
        </CharString>
        <CharString name="s0531">
          732 530 rmoveto
          -107 callsubr
          14.00586 110.00098 rmoveto
          -106 callsubr
          -668 -498.00098 rmoveto
          -105 callsubr
          endchar
        </CharString>
        <CharString name="s0532">
          732 530 rmoveto
          -107 callsubr
          14.00586 110.00098 rmoveto
          -106 callsubr
          -668 -498.00098 rmoveto
          -105 callsubr
          endchar
        </CharString>
        <CharString name="s0533">
          732 530 rmoveto
          -107 callsubr
          14.00586 110.00098 rmoveto
          -106 callsubr
          -668 -498.00098 rmoveto
          -105 callsubr
          endchar
        </CharString>
        <CharString name="s0534">
          732 530 rmoveto
          -107 callsubr
          14.00586 110.00098 rmoveto
          -106 callsubr
          -668 -498.00098 rmoveto
          -105 callsubr
          endchar
        </CharString>
        <CharString name="s0535">
          732 530 rmoveto
          -107 callsubr
          14.00586 110.00098 rmoveto
          -106 callsubr
          -668 -498.00098 rmoveto
          -105 callsubr
          endchar
        </CharString>
        <CharString name="s0536">
          732 530 rmoveto
          -107 callsubr
          14.00586 110.00098 rmoveto
          -106 callsubr
          -668 -498.00098 rmoveto
          -105 callsubr
          endchar
        </CharString>
        <CharString name="s0537">
          732 530 rmoveto
          -107 callsubr
          14.00586 110.00098 rmoveto
          -106 callsubr
          -668 -498.00098 rmoveto
          -105 callsubr
          endchar
        </CharString>
        <CharString name="s0538">
          732 530 rmoveto
          -107 callsubr
          14.00586 110.00098 rmoveto
          -106 callsubr
          -668 -498.00098 rmoveto
          -105 callsubr
          endchar
        </CharString>
        <CharString name="s0539">
          732 530 rmoveto
          -107 callsubr
          14.00586 110.00098 rmoveto
          -106 callsubr
          -668 -498.00098 rmoveto
          -105 callsubr
          endchar
        </CharString>
        <CharString name="s0540">
          732 530 rmoveto
          -107 callsubr
          14.00586 110.00098 rmoveto
          -106 callsubr
          -668 -498.00098 rmoveto
          -105 callsubr
          endchar
        </CharString>
        <CharString name="s0541">
          732 530 rmoveto
          -107 callsubr
          14.00586 110.00098 rmoveto
          -106 callsubr
          -668 -498.00098 rmoveto
          -105 callsubr
          endchar
        </CharString>
        <CharString name="s0542">
          732 530 rmoveto
          -107 callsubr
          14.00586 110.00098 rmoveto
          -106 callsubr
          -668 -498.00098 rmoveto
          -105 callsubr
          endchar
        </CharString>
        <CharString name="s0543">
          732 530 rmoveto
          -107 callsubr
          14.00586 110.00098 rmoveto
          -106 callsubr
          -668 -498.00098 rmoveto
          -105 callsubr
          endchar
        </CharString>
        <CharString name="s0544">
          732 530 rmoveto
          -107 callsubr
          14.00586 110.00098 rmoveto
          -106 callsubr
          -668 -498.00098 rmoveto
          -105 callsubr
          endchar
        </CharString>
        <CharString name="s0545">
          732 530 rmoveto
          -107 callsubr
          14.00586 110.00098 rmoveto
          -106 callsubr
          -668 -498.00098 rmoveto
          -105 callsubr
          endchar
        </CharString>
        <CharString name="s0546">
          732 530 rmoveto
          -107 callsubr
          14.00586 110.00098 rmoveto
          -106 callsubr
          -668 -498.00098 rmoveto
          -105 callsubr
          endchar
        </CharString>
        <CharString name="s0547">
          732 530 rmoveto
          -107 callsubr
          14.00586 110.00098 rmoveto
          -106 callsubr
          -668 -498.00098 rmoveto
          -105 callsubr
          endchar
        </CharString>
        <CharString name="s0548">
          732 530 rmoveto
          -107 callsubr
          14.00586 110.00098 rmoveto
          -106 callsubr
          -668 -498.00098 rmoveto
          -105 callsubr
          endchar
        </CharString>
        <CharString name="s0549">
          732 530 rmoveto
          -107 callsubr
          14.00586 110.00098 rmoveto
          -106 callsubr
          -668 -498.00098 rmoveto
          -105 callsubr
          endchar
        </CharString>
        <CharString name="s0550">
          732 530 rmoveto
          -107 callsubr
          14.00586 110.00098 rmoveto
          -106 callsubr
          -668 -498.00098 rmoveto
          -105 callsubr
          endchar
        </CharString>
        <CharString name="s0551">
          732 530 rmoveto
          -107 callsubr
          14.00586 110.00098 rmoveto
          -106 callsubr
          -668 -498.00098 rmoveto
          -105 callsubr
          endchar
        </CharString>
        <CharString name="s0552">
          732 530 rmoveto
          -107 callsubr
          14.00586 110.00098 rmoveto
          -106 callsubr
          -668 -498.00098 rmoveto
          -105 callsubr
          endchar
        </CharString>
        <CharString name="s0553">
          732 530 rmoveto
          -107 callsubr
          14.00586 110.00098 rmoveto
          -106 callsubr
          -668 -498.00098 rmoveto
          -105 callsubr
          endchar
        </CharString>
        <CharString name="s0554">
          732 530 rmoveto
          -107 callsubr
          14.00586 110.00098 rmoveto
          -106 callsubr
          -668 -498.00098 rmoveto
          -105 callsubr
          endchar
        </CharString>
        <CharString name="s0555">
          732 530 rmoveto
          -107 callsubr
          14.00586 110.00098 rmoveto
          -106 callsubr
          -668 -498.00098 rmoveto
          -105 callsubr
          endchar
        </CharString>
        <CharString name="s0556">
          732 530 rmoveto
          -107 callsubr
          14.00586 110.00098 rmoveto
          -106 callsubr
          -668 -498.00098 rmoveto
          -105 callsubr
          endchar
        </CharString>
        <CharString name="s0557">
          732 530 rmoveto
          -107 callsubr
          14.00586 110.00098 rmoveto
          -106 callsubr
          -668 -498.00098 rmoveto
          -105 callsubr
          endchar
        </CharString>
        <CharString name="s0558">
          732 530 rmoveto
          -107 callsubr
          14.00586 110.00098 rmoveto
          -106 callsubr
          -668 -498.00098 rmoveto
          -105 callsubr
          endchar
        </CharString>
        <CharString name="s0559">
          732 530 rmoveto
          -107 callsubr
          14.00586 110.00098 rmoveto
          -106 callsubr
          -668 -498.00098 rmoveto
          -105 callsubr
          endchar
        </CharString>
        <CharString name="s0560">
          732 530 rmoveto
          -107 callsubr
          14.00586 110.00098 rmoveto
          -106 callsubr
          -668 -498.00098 rmoveto
          -105 callsubr
          endchar
        </CharString>
        <CharString name="s0561">
          732 530 rmoveto
          -107 callsubr
          14.00586 110.00098 rmoveto
          -106 callsubr
          -668 -498.00098 rmoveto
          -105 callsubr
          endchar
        </CharString>
        <CharString name="s0562">
          732 530 rmoveto
          -107 callsubr
          14.00586 110.00098 rmoveto
          -106 callsubr
          -668 -498.00098 rmoveto
          -105 callsubr
          endchar
        </CharString>
        <CharString name="s0563">
          732 530 rmoveto
          -107 callsubr
          14.00586 110.00098 rmoveto
          -106 callsubr
          -668 -498.00098 rmoveto
          -105 callsubr
          endchar
        </CharString>
        <CharString name="s0564">
          732 530 rmoveto
          -107 callsubr
          14.00586 110.00098 rmoveto
          -106 callsubr
          -668 -498.00098 rmoveto
          -105 callsubr
          endchar
        </CharString>
        <CharString name="s0565">
          732 530 rmoveto
          -107 callsubr
          14.00586 110.00098 rmoveto
          -106 callsubr
          -668 -498.00098 rmoveto
          -105 callsubr
          endchar
        </CharString>
        <CharString name="s0566">
          732 530 rmoveto
          -107 callsubr
          14.00586 110.00098 rmoveto
          -106 callsubr
          -668 -498.00098 rmoveto
          -105 callsubr
          endchar
        </CharString>
        <CharString name="s0567">
          732 530 rmoveto
          -107 callsubr
          14.00586 110.00098 rmoveto
          -106 callsubr
          -668 -498.00098 rmoveto
          -105 callsubr
          endchar
        </CharString>
        <CharString name="s0568">
          732 530 rmoveto
          -107 callsubr
          14.00586 110.00098 rmoveto
          -106 callsubr
          -668 -498.00098 rmoveto
          -105 callsubr
          endchar
        </CharString>
        <CharString name="s0569">
          732 530 rmoveto
          -107 callsubr
          14.00586 110.00098 rmoveto
          -106 callsubr
          -668 -498.00098 rmoveto
          -105 callsubr
          endchar
        </CharString>
        <CharString name="s0570">
          732 530 rmoveto
          -107 callsubr
          14.00586 110.00098 rmoveto
          -106 callsubr
          -668 -498.00098 rmoveto
          -105 callsubr
          endchar
        </CharString>
        <CharString name="s0571">
          732 530 rmoveto
          -107 callsubr
          14.00586 110.00098 rmoveto
          -106 callsubr
          -668 -498.00098 rmoveto
          -105 callsubr
          endchar
        </CharString>
        <CharString name="s0572">
          732 530 rmoveto
          -107 callsubr
          14.00586 110.00098 rmoveto
          -106 callsubr
          -668 -498.00098 rmoveto
          -105 callsubr
          endchar
        </CharString>
        <CharString name="s0573">
          732 530 rmoveto
          -107 callsubr
          14.00586 110.00098 rmoveto
          -106 callsubr
          -668 -498.00098 rmoveto
          -105 callsubr
          endchar
        </CharString>
        <CharString name="s0574">
          732 530 rmoveto
          -107 callsubr
          14.00586 110.00098 rmoveto
          -106 callsubr
          -668 -498.00098 rmoveto
          -105 callsubr
          endchar
        </CharString>
        <CharString name="s0575">
          732 530 rmoveto
          -107 callsubr
          14.00586 110.00098 rmoveto
          -106 callsubr
          -668 -498.00098 rmoveto
          -105 callsubr
          endchar
        </CharString>
        <CharString name="s0576">
          732 530 rmoveto
          -107 callsubr
          14.00586 110.00098 rmoveto
          -106 callsubr
          -668 -498.00098 rmoveto
          -105 callsubr
          endchar
        </CharString>
        <CharString name="s0577">
          732 530 rmoveto
          -107 callsubr
          14.00586 110.00098 rmoveto
          -106 callsubr
          -668 -498.00098 rmoveto
          -105 callsubr
          endchar
        </CharString>
        <CharString name="s0578">
          732 530 rmoveto
          -107 callsubr
          14.00586 110.00098 rmoveto
          -106 callsubr
          -668 -498.00098 rmoveto
          -105 callsubr
          endchar
        </CharString>
        <CharString name="s0579">
          732 530 rmoveto
          -107 callsubr
          14.00586 110.00098 rmoveto
          -106 callsubr
          -668 -498.00098 rmoveto
          -105 callsubr
          endchar
        </CharString>
        <CharString name="s0580">
          732 530 rmoveto
          -107 callsubr
          14.00586 110.00098 rmoveto
          -106 callsubr
          -668 -498.00098 rmoveto
          -105 callsubr
          endchar
        </CharString>
        <CharString name="s0581">
          732 530 rmoveto
          -107 callsubr
          14.00586 110.00098 rmoveto
          -106 callsubr
          -668 -498.00098 rmoveto
          -105 callsubr
          endchar
        </CharString>
        <CharString name="s0582">
          732 530 rmoveto
          -107 callsubr
          14.00586 110.00098 rmoveto
          -106 callsubr
          -668 -498.00098 rmoveto
          -105 callsubr
          endchar
        </CharString>
        <CharString name="s0583">
          732 530 rmoveto
          -107 callsubr
          14.00586 110.00098 rmoveto
          -106 callsubr
          -668 -498.00098 rmoveto
          -105 callsubr
          endchar
        </CharString>
        <CharString name="s0584">
          732 530 rmoveto
          -107 callsubr
          14.00586 110.00098 rmoveto
          -106 callsubr
          -668 -498.00098 rmoveto
          -105 callsubr
          endchar
        </CharString>
        <CharString name="s0585">
          732 530 rmoveto
          -107 callsubr
          14.00586 110.00098 rmoveto
          -106 callsubr
          -668 -498.00098 rmoveto
          -105 callsubr
          endchar
        </CharString>
        <CharString name="s0586">
          732 530 rmoveto
          -107 callsubr
          14.00586 110.00098 rmoveto
          -106 callsubr
          -668 -498.00098 rmoveto
          -105 callsubr
          endchar
        </CharString>
        <CharString name="s0587">
          732 530 rmoveto
          -107 callsubr
          14.00586 110.00098 rmoveto
          -106 callsubr
          -668 -498.00098 rmoveto
          -105 callsubr
          endchar
        </CharString>
        <CharString name="s0588">
          732 530 rmoveto
          -107 callsubr
          14.00586 110.00098 rmoveto
          -106 callsubr
          -668 -498.00098 rmoveto
          -105 callsubr
          endchar
        </CharString>
        <CharString name="s0589">
          732 530 rmoveto
          -107 callsubr
          14.00586 110.00098 rmoveto
          -106 callsubr
          -668 -498.00098 rmoveto
          -105 callsubr
          endchar
        </CharString>
        <CharString name="s0590">
          732 530 rmoveto
          -107 callsubr
          14.00586 110.00098 rmoveto
          -106 callsubr
          -668 -498.00098 rmoveto
          -105 callsubr
          endchar
        </CharString>
        <CharString name="s0591">
          732 530 rmoveto
          -107 callsubr
          14.00586 110.00098 rmoveto
          -106 callsubr
          -668 -498.00098 rmoveto
          -105 callsubr
          endchar
        </CharString>
        <CharString name="s0592">
          732 530 rmoveto
          -107 callsubr
          14.00586 110.00098 rmoveto
          -106 callsubr
          -668 -498.00098 rmoveto
          -105 callsubr
          endchar
        </CharString>
        <CharString name="s0593">
          732 530 rmoveto
          -107 callsubr
          14.00586 110.00098 rmoveto
          -106 callsubr
          -668 -498.00098 rmoveto
          -105 callsubr
          endchar
        </CharString>
        <CharString name="s0594">
          732 530 rmoveto
          -107 callsubr
          14.00586 110.00098 rmoveto
          -106 callsubr
          -668 -498.00098 rmoveto
          -105 callsubr
          endchar
        </CharString>
        <CharString name="s0595">
          732 530 rmoveto
          -107 callsubr
          14.00586 110.00098 rmoveto
          -106 callsubr
          -668 -498.00098 rmoveto
          -105 callsubr
          endchar
        </CharString>
        <CharString name="s0596">
          732 530 rmoveto
          -107 callsubr
          14.00586 110.00098 rmoveto
          -106 callsubr
          -668 -498.00098 rmoveto
          -105 callsubr
          endchar
        </CharString>
        <CharString name="s0597">
          732 530 rmoveto
          -107 callsubr
          14.00586 110.00098 rmoveto
          -106 callsubr
          -668 -498.00098 rmoveto
          -105 callsubr
          endchar
        </CharString>
        <CharString name="s0598">
          732 530 rmoveto
          -107 callsubr
          14.00586 110.00098 rmoveto
          -106 callsubr
          -668 -498.00098 rmoveto
          -105 callsubr
          endchar
        </CharString>
        <CharString name="s0599">
          732 530 rmoveto
          -107 callsubr
          14.00586 110.00098 rmoveto
          -106 callsubr
          -668 -498.00098 rmoveto
          -105 callsubr
          endchar
        </CharString>
        <CharString name="s0600">
          732 530 rmoveto
          -107 callsubr
          14.00586 110.00098 rmoveto
          -106 callsubr
          -668 -498.00098 rmoveto
          -105 callsubr
          endchar
        </CharString>
        <CharString name="s0601">
          732 530 rmoveto
          -107 callsubr
          14.00586 110.00098 rmoveto
          -106 callsubr
          -668 -498.00098 rmoveto
          -105 callsubr
          endchar
        </CharString>
        <CharString name="s0602">
          732 530 rmoveto
          -107 callsubr
          14.00586 110.00098 rmoveto
          -106 callsubr
          -668 -498.00098 rmoveto
          -105 callsubr
          endchar
        </CharString>
        <CharString name="s0603">
          732 530 rmoveto
          -107 callsubr
          14.00586 110.00098 rmoveto
          -106 callsubr
          -668 -498.00098 rmoveto
          -105 callsubr
          endchar
        </CharString>
        <CharString name="s0604">
          732 530 rmoveto
          -107 callsubr
          14.00586 110.00098 rmoveto
          -106 callsubr
          -668 -498.00098 rmoveto
          -105 callsubr
          endchar
        </CharString>
        <CharString name="s0605">
          732 530 rmoveto
          -107 callsubr
          14.00586 110.00098 rmoveto
          -106 callsubr
          -668 -498.00098 rmoveto
          -105 callsubr
          endchar
        </CharString>
        <CharString name="s0606">
          732 530 rmoveto
          -107 callsubr
          14.00586 110.00098 rmoveto
          -106 callsubr
          -668 -498.00098 rmoveto
          -105 callsubr
          endchar
        </CharString>
        <CharString name="s0607">
          732 530 rmoveto
          -107 callsubr
          14.00586 110.00098 rmoveto
          -106 callsubr
          -668 -498.00098 rmoveto
          -105 callsubr
          endchar
        </CharString>
        <CharString name="s0608">
          732 530 rmoveto
          -107 callsubr
          14.00586 110.00098 rmoveto
          -106 callsubr
          -668 -498.00098 rmoveto
          -105 callsubr
          endchar
        </CharString>
        <CharString name="s0609">
          732 530 rmoveto
          -107 callsubr
          14.00586 110.00098 rmoveto
          -106 callsubr
          -668 -498.00098 rmoveto
          -105 callsubr
          endchar
        </CharString>
        <CharString name="s0610">
          732 530 rmoveto
          -107 callsubr
          14.00586 110.00098 rmoveto
          -106 callsubr
          -668 -498.00098 rmoveto
          -105 callsubr
          endchar
        </CharString>
        <CharString name="s0611">
          732 530 rmoveto
          -107 callsubr
          14.00586 110.00098 rmoveto
          -106 callsubr
          -668 -498.00098 rmoveto
          -105 callsubr
          endchar
        </CharString>
        <CharString name="s0612">
          732 530 rmoveto
          -107 callsubr
          14.00586 110.00098 rmoveto
          -106 callsubr
          -668 -498.00098 rmoveto
          -105 callsubr
          endchar
        </CharString>
        <CharString name="s0613">
          732 530 rmoveto
          -107 callsubr
          14.00586 110.00098 rmoveto
          -106 callsubr
          -668 -498.00098 rmoveto
          -105 callsubr
          endchar
        </CharString>
        <CharString name="s0614">
          732 530 rmoveto
          -107 callsubr
          14.00586 110.00098 rmoveto
          -106 callsubr
          -668 -498.00098 rmoveto
          -105 callsubr
          endchar
        </CharString>
        <CharString name="s0615">
          732 530 rmoveto
          -107 callsubr
          14.00586 110.00098 rmoveto
          -106 callsubr
          -668 -498.00098 rmoveto
          -105 callsubr
          endchar
        </CharString>
        <CharString name="s0616">
          732 530 rmoveto
          -107 callsubr
          14.00586 110.00098 rmoveto
          -106 callsubr
          -668 -498.00098 rmoveto
          -105 callsubr
          endchar
        </CharString>
        <CharString name="s0617">
          732 530 rmoveto
          -107 callsubr
          14.00586 110.00098 rmoveto
          -106 callsubr
          -668 -498.00098 rmoveto
          -105 callsubr
          endchar
        </CharString>
        <CharString name="s0618">
          732 530 rmoveto
          -107 callsubr
          14.00586 110.00098 rmoveto
          -106 callsubr
          -668 -498.00098 rmoveto
          -105 callsubr
          endchar
        </CharString>
        <CharString name="s0619">
          732 530 rmoveto
          -107 callsubr
          14.00586 110.00098 rmoveto
          -106 callsubr
          -668 -498.00098 rmoveto
          -105 callsubr
          endchar
        </CharString>
        <CharString name="s0620">
          732 530 rmoveto
          -107 callsubr
          14.00586 110.00098 rmoveto
          -106 callsubr
          -668 -498.00098 rmoveto
          -105 callsubr
          endchar
        </CharString>
        <CharString name="s0621">
          732 530 rmoveto
          -107 callsubr
          14.00586 110.00098 rmoveto
          -106 callsubr
          -668 -498.00098 rmoveto
          -105 callsubr
          endchar
        </CharString>
        <CharString name="s0622">
          732 530 rmoveto
          -107 callsubr
          14.00586 110.00098 rmoveto
          -106 callsubr
          -668 -498.00098 rmoveto
          -105 callsubr
          endchar
        </CharString>
        <CharString name="s0623">
          732 530 rmoveto
          -107 callsubr
          14.00586 110.00098 rmoveto
          -106 callsubr
          -668 -498.00098 rmoveto
          -105 callsubr
          endchar
        </CharString>
        <CharString name="s0624">
          732 530 rmoveto
          -107 callsubr
          14.00586 110.00098 rmoveto
          -106 callsubr
          -668 -498.00098 rmoveto
          -105 callsubr
          endchar
        </CharString>
        <CharString name="s0625">
          732 530 rmoveto
          -107 callsubr
          14.00586 110.00098 rmoveto
          -106 callsubr
          -668 -498.00098 rmoveto
          -105 callsubr
          endchar
        </CharString>
        <CharString name="s0626">
          732 530 rmoveto
          -107 callsubr
          14.00586 110.00098 rmoveto
          -106 callsubr
          -668 -498.00098 rmoveto
          -105 callsubr
          endchar
        </CharString>
        <CharString name="s0627">
          732 530 rmoveto
          -107 callsubr
          14.00586 110.00098 rmoveto
          -106 callsubr
          -668 -498.00098 rmoveto
          -105 callsubr
          endchar
        </CharString>
        <CharString name="s0628">
          732 530 rmoveto
          -107 callsubr
          14.00586 110.00098 rmoveto
          -106 callsubr
          -668 -498.00098 rmoveto
          -105 callsubr
          endchar
        </CharString>
        <CharString name="s0629">
          732 530 rmoveto
          -107 callsubr
          14.00586 110.00098 rmoveto
          -106 callsubr
          -668 -498.00098 rmoveto
          -105 callsubr
          endchar
        </CharString>
        <CharString name="s0630">
          732 530 rmoveto
          -107 callsubr
          14.00586 110.00098 rmoveto
          -106 callsubr
          -668 -498.00098 rmoveto
          -105 callsubr
          endchar
        </CharString>
        <CharString name="s0631">
          732 530 rmoveto
          -107 callsubr
          14.00586 110.00098 rmoveto
          -106 callsubr
          -668 -498.00098 rmoveto
          -105 callsubr
          endchar
        </CharString>
        <CharString name="s0632">
          732 530 rmoveto
          -107 callsubr
          14.00586 110.00098 rmoveto
          -106 callsubr
          -668 -498.00098 rmoveto
          -105 callsubr
          endchar
        </CharString>
        <CharString name="s0633">
          732 530 rmoveto
          -107 callsubr
          14.00586 110.00098 rmoveto
          -106 callsubr
          -668 -498.00098 rmoveto
          -105 callsubr
          endchar
        </CharString>
        <CharString name="s0634">
          732 530 rmoveto
          -107 callsubr
          14.00586 110.00098 rmoveto
          -106 callsubr
          -668 -498.00098 rmoveto
          -105 callsubr
          endchar
        </CharString>
        <CharString name="s0635">
          732 530 rmoveto
          -107 callsubr
          14.00586 110.00098 rmoveto
          -106 callsubr
          -668 -498.00098 rmoveto
          -105 callsubr
          endchar
        </CharString>
        <CharString name="s0636">
          732 530 rmoveto
          -107 callsubr
          14.00586 110.00098 rmoveto
          -106 callsubr
          -668 -498.00098 rmoveto
          -105 callsubr
          endchar
        </CharString>
        <CharString name="s0637">
          732 530 rmoveto
          -107 callsubr
          14.00586 110.00098 rmoveto
          -106 callsubr
          -668 -498.00098 rmoveto
          -105 callsubr
          endchar
        </CharString>
        <CharString name="s0638">
          732 530 rmoveto
          -107 callsubr
          14.00586 110.00098 rmoveto
          -106 callsubr
          -668 -498.00098 rmoveto
          -105 callsubr
          endchar
        </CharString>
        <CharString name="s0639">
          732 530 rmoveto
          -107 callsubr
          14.00586 110.00098 rmoveto
          -106 callsubr
          -668 -498.00098 rmoveto
          -105 callsubr
          endchar
        </CharString>
        <CharString name="s0640">
          732 530 rmoveto
          -107 callsubr
          14.00586 110.00098 rmoveto
          -106 callsubr
          -668 -498.00098 rmoveto
          -105 callsubr
          endchar
        </CharString>
        <CharString name="s0641">
          732 530 rmoveto
          -107 callsubr
          14.00586 110.00098 rmoveto
          -106 callsubr
          -668 -498.00098 rmoveto
          -105 callsubr
          endchar
        </CharString>
        <CharString name="s0642">
          732 530 rmoveto
          -107 callsubr
          14.00586 110.00098 rmoveto
          -106 callsubr
          -668 -498.00098 rmoveto
          -105 callsubr
          endchar
        </CharString>
        <CharString name="s0643">
          732 530 rmoveto
          -107 callsubr
          14.00586 110.00098 rmoveto
          -106 callsubr
          -668 -498.00098 rmoveto
          -105 callsubr
          endchar
        </CharString>
        <CharString name="s0644">
          732 530 rmoveto
          -107 callsubr
          14.00586 110.00098 rmoveto
          -106 callsubr
          -668 -498.00098 rmoveto
          -105 callsubr
          endchar
        </CharString>
        <CharString name="s0645">
          732 530 rmoveto
          -107 callsubr
          14.00586 110.00098 rmoveto
          -106 callsubr
          -668 -498.00098 rmoveto
          -105 callsubr
          endchar
        </CharString>
        <CharString name="s0646">
          732 530 rmoveto
          -107 callsubr
          14.00586 110.00098 rmoveto
          -106 callsubr
          -668 -498.00098 rmoveto
          -105 callsubr
          endchar
        </CharString>
        <CharString name="s0647">
          732 530 rmoveto
          -107 callsubr
          14.00586 110.00098 rmoveto
          -106 callsubr
          -668 -498.00098 rmoveto
          -105 callsubr
          endchar
        </CharString>
        <CharString name="s0648">
          732 530 rmoveto
          -107 callsubr
          14.00586 110.00098 rmoveto
          -106 callsubr
          -668 -498.00098 rmoveto
          -105 callsubr
          endchar
        </CharString>
        <CharString name="s0649">
          732 530 rmoveto
          -107 callsubr
          14.00586 110.00098 rmoveto
          -106 callsubr
          -668 -498.00098 rmoveto
          -105 callsubr
          endchar
        </CharString>
        <CharString name="s0650">
          732 530 rmoveto
          -107 callsubr
          14.00586 110.00098 rmoveto
          -106 callsubr
          -668 -498.00098 rmoveto
          -105 callsubr
          endchar
        </CharString>
        <CharString name="s0651">
          732 530 rmoveto
          -107 callsubr
          14.00586 110.00098 rmoveto
          -106 callsubr
          -668 -498.00098 rmoveto
          -105 callsubr
          endchar
        </CharString>
        <CharString name="s0652">
          732 530 rmoveto
          -107 callsubr
          14.00586 110.00098 rmoveto
          -106 callsubr
          -668 -498.00098 rmoveto
          -105 callsubr
          endchar
        </CharString>
        <CharString name="s0653">
          732 530 rmoveto
          -107 callsubr
          14.00586 110.00098 rmoveto
          -106 callsubr
          -668 -498.00098 rmoveto
          -105 callsubr
          endchar
        </CharString>
        <CharString name="s0654">
          732 530 rmoveto
          -107 callsubr
          14.00586 110.00098 rmoveto
          -106 callsubr
          -668 -498.00098 rmoveto
          -105 callsubr
          endchar
        </CharString>
        <CharString name="s0655">
          732 530 rmoveto
          -107 callsubr
          14.00586 110.00098 rmoveto
          -106 callsubr
          -668 -498.00098 rmoveto
          -105 callsubr
          endchar
        </CharString>
        <CharString name="s0656">
          732 530 rmoveto
          -107 callsubr
          14.00586 110.00098 rmoveto
          -106 callsubr
          -668 -498.00098 rmoveto
          -105 callsubr
          endchar
        </CharString>
        <CharString name="s0657">
          732 530 rmoveto
          -107 callsubr
          14.00586 110.00098 rmoveto
          -106 callsubr
          -668 -498.00098 rmoveto
          -105 callsubr
          endchar
        </CharString>
        <CharString name="s0658">
          732 530 rmoveto
          -107 callsubr
          14.00586 110.00098 rmoveto
          -106 callsubr
          -668 -498.00098 rmoveto
          -105 callsubr
          endchar
        </CharString>
        <CharString name="s0659">
          732 530 rmoveto
          -107 callsubr
          14.00586 110.00098 rmoveto
          -106 callsubr
          -668 -498.00098 rmoveto
          -105 callsubr
          endchar
        </CharString>
        <CharString name="s0660">
          732 530 rmoveto
          -107 callsubr
          14.00586 110.00098 rmoveto
          -106 callsubr
          -668 -498.00098 rmoveto
          -105 callsubr
          endchar
        </CharString>
        <CharString name="s0661">
          732 530 rmoveto
          -107 callsubr
          14.00586 110.00098 rmoveto
          -106 callsubr
          -668 -498.00098 rmoveto
          -105 callsubr
          endchar
        </CharString>
        <CharString name="s0662">
          732 530 rmoveto
          -107 callsubr
          14.00586 110.00098 rmoveto
          -106 callsubr
          -668 -498.00098 rmoveto
          -105 callsubr
          endchar
        </CharString>
        <CharString name="s0663">
          732 530 rmoveto
          -107 callsubr
          14.00586 110.00098 rmoveto
          -106 callsubr
          -668 -498.00098 rmoveto
          -105 callsubr
          endchar
        </CharString>
        <CharString name="s0664">
          732 530 rmoveto
          -107 callsubr
          14.00586 110.00098 rmoveto
          -106 callsubr
          -668 -498.00098 rmoveto
          -105 callsubr
          endchar
        </CharString>
        <CharString name="s0665">
          732 530 rmoveto
          -107 callsubr
          14.00586 110.00098 rmoveto
          -106 callsubr
          -668 -498.00098 rmoveto
          -105 callsubr
          endchar
        </CharString>
        <CharString name="s0666">
          732 530 rmoveto
          -107 callsubr
          14.00586 110.00098 rmoveto
          -106 callsubr
          -668 -498.00098 rmoveto
          -105 callsubr
          endchar
        </CharString>
        <CharString name="s0667">
          732 530 rmoveto
          -107 callsubr
          14.00586 110.00098 rmoveto
          -106 callsubr
          -668 -498.00098 rmoveto
          -105 callsubr
          endchar
        </CharString>
        <CharString name="s0668">
          732 530 rmoveto
          -107 callsubr
          14.00586 110.00098 rmoveto
          -106 callsubr
          -668 -498.00098 rmoveto
          -105 callsubr
          endchar
        </CharString>
        <CharString name="s0669">
          732 530 rmoveto
          -107 callsubr
          14.00586 110.00098 rmoveto
          -106 callsubr
          -668 -498.00098 rmoveto
          -105 callsubr
          endchar
        </CharString>
        <CharString name="s0670">
          732 530 rmoveto
          -107 callsubr
          14.00586 110.00098 rmoveto
          -106 callsubr
          -668 -498.00098 rmoveto
          -105 callsubr
          endchar
        </CharString>
        <CharString name="s0671">
          732 530 rmoveto
          -107 callsubr
          14.00586 110.00098 rmoveto
          -106 callsubr
          -668 -498.00098 rmoveto
          -105 callsubr
          endchar
        </CharString>
        <CharString name="s0672">
          732 530 rmoveto
          -107 callsubr
          14.00586 110.00098 rmoveto
          -106 callsubr
          -668 -498.00098 rmoveto
          -105 callsubr
          endchar
        </CharString>
        <CharString name="s0673">
          732 530 rmoveto
          -107 callsubr
          14.00586 110.00098 rmoveto
          -106 callsubr
          -668 -498.00098 rmoveto
          -105 callsubr
          endchar
        </CharString>
        <CharString name="s0674">
          732 530 rmoveto
          -107 callsubr
          14.00586 110.00098 rmoveto
          -106 callsubr
          -668 -498.00098 rmoveto
          -105 callsubr
          endchar
        </CharString>
        <CharString name="s0675">
          732 530 rmoveto
          -107 callsubr
          14.00586 110.00098 rmoveto
          -106 callsubr
          -668 -498.00098 rmoveto
          -105 callsubr
          endchar
        </CharString>
        <CharString name="s0676">
          732 530 rmoveto
          -107 callsubr
          14.00586 110.00098 rmoveto
          -106 callsubr
          -668 -498.00098 rmoveto
          -105 callsubr
          endchar
        </CharString>
        <CharString name="s0677">
          732 530 rmoveto
          -107 callsubr
          14.00586 110.00098 rmoveto
          -106 callsubr
          -668 -498.00098 rmoveto
          -105 callsubr
          endchar
        </CharString>
        <CharString name="s0678">
          732 530 rmoveto
          -107 callsubr
          14.00586 110.00098 rmoveto
          -106 callsubr
          -668 -498.00098 rmoveto
          -105 callsubr
          endchar
        </CharString>
        <CharString name="s0679">
          732 530 rmoveto
          -107 callsubr
          14.00586 110.00098 rmoveto
          -106 callsubr
          -668 -498.00098 rmoveto
          -105 callsubr
          endchar
        </CharString>
        <CharString name="s0680">
          732 530 rmoveto
          -107 callsubr
          14.00586 110.00098 rmoveto
          -106 callsubr
          -668 -498.00098 rmoveto
          -105 callsubr
          endchar
        </CharString>
        <CharString name="s0681">
          732 530 rmoveto
          -107 callsubr
          14.00586 110.00098 rmoveto
          -106 callsubr
          -668 -498.00098 rmoveto
          -105 callsubr
          endchar
        </CharString>
        <CharString name="s0682">
          732 530 rmoveto
          -107 callsubr
          14.00586 110.00098 rmoveto
          -106 callsubr
          -668 -498.00098 rmoveto
          -105 callsubr
          endchar
        </CharString>
        <CharString name="s0683">
          732 530 rmoveto
          -107 callsubr
          14.00586 110.00098 rmoveto
          -106 callsubr
          -668 -498.00098 rmoveto
          -105 callsubr
          endchar
        </CharString>
        <CharString name="s0684">
          732 530 rmoveto
          -107 callsubr
          14.00586 110.00098 rmoveto
          -106 callsubr
          -668 -498.00098 rmoveto
          -105 callsubr
          endchar
        </CharString>
        <CharString name="s0685">
          732 530 rmoveto
          -107 callsubr
          14.00586 110.00098 rmoveto
          -106 callsubr
          -668 -498.00098 rmoveto
          -105 callsubr
          endchar
        </CharString>
        <CharString name="s0686">
          732 530 rmoveto
          -107 callsubr
          14.00586 110.00098 rmoveto
          -106 callsubr
          -668 -498.00098 rmoveto
          -105 callsubr
          endchar
        </CharString>
        <CharString name="s0687">
          732 530 rmoveto
          -107 callsubr
          14.00586 110.00098 rmoveto
          -106 callsubr
          -668 -498.00098 rmoveto
          -105 callsubr
          endchar
        </CharString>
        <CharString name="s0688">
          732 530 rmoveto
          -107 callsubr
          14.00586 110.00098 rmoveto
          -106 callsubr
          -668 -498.00098 rmoveto
          -105 callsubr
          endchar
        </CharString>
        <CharString name="s0689">
          732 530 rmoveto
          -107 callsubr
          14.00586 110.00098 rmoveto
          -106 callsubr
          -668 -498.00098 rmoveto
          -105 callsubr
          endchar
        </CharString>
        <CharString name="s0690">
          732 530 rmoveto
          -107 callsubr
          14.00586 110.00098 rmoveto
          -106 callsubr
          -668 -498.00098 rmoveto
          -105 callsubr
          endchar
        </CharString>
        <CharString name="s0691">
          732 530 rmoveto
          -107 callsubr
          14.00586 110.00098 rmoveto
          -106 callsubr
          -668 -498.00098 rmoveto
          -105 callsubr
          endchar
        </CharString>
        <CharString name="s0692">
          732 530 rmoveto
          -107 callsubr
          14.00586 110.00098 rmoveto
          -106 callsubr
          -668 -498.00098 rmoveto
          -105 callsubr
          endchar
        </CharString>
        <CharString name="s0693">
          732 530 rmoveto
          -107 callsubr
          14.00586 110.00098 rmoveto
          -106 callsubr
          -668 -498.00098 rmoveto
          -105 callsubr
          endchar
        </CharString>
        <CharString name="s0694">
          732 530 rmoveto
          -107 callsubr
          14.00586 110.00098 rmoveto
          -106 callsubr
          -668 -498.00098 rmoveto
          -105 callsubr
          endchar
        </CharString>
        <CharString name="s0695">
          732 530 rmoveto
          -107 callsubr
          14.00586 110.00098 rmoveto
          -106 callsubr
          -668 -498.00098 rmoveto
          -105 callsubr
          endchar
        </CharString>
        <CharString name="s0696">
          732 530 rmoveto
          -107 callsubr
          14.00586 110.00098 rmoveto
          -106 callsubr
          -668 -498.00098 rmoveto
          -105 callsubr
          endchar
        </CharString>
        <CharString name="s0697">
          732 530 rmoveto
          -107 callsubr
          14.00586 110.00098 rmoveto
          -106 callsubr
          -668 -498.00098 rmoveto
          -105 callsubr
          endchar
        </CharString>
        <CharString name="s0698">
          732 530 rmoveto
          -107 callsubr
          14.00586 110.00098 rmoveto
          -106 callsubr
          -668 -498.00098 rmoveto
          -105 callsubr
          endchar
        </CharString>
        <CharString name="s0699">
          732 530 rmoveto
          -107 callsubr
          14.00586 110.00098 rmoveto
          -106 callsubr
          -668 -498.00098 rmoveto
          -105 callsubr
          endchar
        </CharString>
        <CharString name="s0700">
          732 530 rmoveto
          -107 callsubr
          14.00586 110.00098 rmoveto
          -106 callsubr
          -668 -498.00098 rmoveto
          -105 callsubr
          endchar
        </CharString>
        <CharString name="s0701">
          732 530 rmoveto
          -107 callsubr
          14.00586 110.00098 rmoveto
          -106 callsubr
          -668 -498.00098 rmoveto
          -105 callsubr
          endchar
        </CharString>
        <CharString name="s0702">
          732 530 rmoveto
          -107 callsubr
          14.00586 110.00098 rmoveto
          -106 callsubr
          -668 -498.00098 rmoveto
          -105 callsubr
          endchar
        </CharString>
        <CharString name="s0703">
          732 530 rmoveto
          -107 callsubr
          14.00586 110.00098 rmoveto
          -106 callsubr
          -668 -498.00098 rmoveto
          -105 callsubr
          endchar
        </CharString>
        <CharString name="s0704">
          732 530 rmoveto
          -107 callsubr
          14.00586 110.00098 rmoveto
          -106 callsubr
          -668 -498.00098 rmoveto
          -105 callsubr
          endchar
        </CharString>
        <CharString name="s0705">
          732 530 rmoveto
          -107 callsubr
          14.00586 110.00098 rmoveto
          -106 callsubr
          -668 -498.00098 rmoveto
          -105 callsubr
          endchar
        </CharString>
        <CharString name="s0706">
          732 530 rmoveto
          -107 callsubr
          14.00586 110.00098 rmoveto
          -106 callsubr
          -668 -498.00098 rmoveto
          -105 callsubr
          endchar
        </CharString>
        <CharString name="s0707">
          732 530 rmoveto
          -107 callsubr
          14.00586 110.00098 rmoveto
          -106 callsubr
          -668 -498.00098 rmoveto
          -105 callsubr
          endchar
        </CharString>
        <CharString name="s0708">
          732 530 rmoveto
          -107 callsubr
          14.00586 110.00098 rmoveto
          -106 callsubr
          -668 -498.00098 rmoveto
          -105 callsubr
          endchar
        </CharString>
        <CharString name="s0709">
          732 530 rmoveto
          -107 callsubr
          14.00586 110.00098 rmoveto
          -106 callsubr
          -668 -498.00098 rmoveto
          -105 callsubr
          endchar
        </CharString>
        <CharString name="s0710">
          732 530 rmoveto
          -107 callsubr
          14.00586 110.00098 rmoveto
          -106 callsubr
          -668 -498.00098 rmoveto
          -105 callsubr
          endchar
        </CharString>
        <CharString name="s0711">
          732 530 rmoveto
          -107 callsubr
          14.00586 110.00098 rmoveto
          -106 callsubr
          -668 -498.00098 rmoveto
          -105 callsubr
          endchar
        </CharString>
        <CharString name="s0712">
          732 530 rmoveto
          -107 callsubr
          14.00586 110.00098 rmoveto
          -106 callsubr
          -668 -498.00098 rmoveto
          -105 callsubr
          endchar
        </CharString>
        <CharString name="s0713">
          732 530 rmoveto
          -107 callsubr
          14.00586 110.00098 rmoveto
          -106 callsubr
          -668 -498.00098 rmoveto
          -105 callsubr
          endchar
        </CharString>
        <CharString name="s0714">
          732 530 rmoveto
          -107 callsubr
          14.00586 110.00098 rmoveto
          -106 callsubr
          -668 -498.00098 rmoveto
          -105 callsubr
          endchar
        </CharString>
        <CharString name="s0715">
          732 530 rmoveto
          -107 callsubr
          14.00586 110.00098 rmoveto
          -106 callsubr
          -668 -498.00098 rmoveto
          -105 callsubr
          endchar
        </CharString>
        <CharString name="s0716">
          732 530 rmoveto
          -107 callsubr
          14.00586 110.00098 rmoveto
          -106 callsubr
          -668 -498.00098 rmoveto
          -105 callsubr
          endchar
        </CharString>
        <CharString name="s0717">
          732 530 rmoveto
          -107 callsubr
          14.00586 110.00098 rmoveto
          -106 callsubr
          -668 -498.00098 rmoveto
          -105 callsubr
          endchar
        </CharString>
        <CharString name="s0718">
          732 530 rmoveto
          -107 callsubr
          14.00586 110.00098 rmoveto
          -106 callsubr
          -668 -498.00098 rmoveto
          -105 callsubr
          endchar
        </CharString>
        <CharString name="s0719">
          732 530 rmoveto
          -107 callsubr
          14.00586 110.00098 rmoveto
          -106 callsubr
          -668 -498.00098 rmoveto
          -105 callsubr
          endchar
        </CharString>
        <CharString name="s0720">
          732 530 rmoveto
          -107 callsubr
          14.00586 110.00098 rmoveto
          -106 callsubr
          -668 -498.00098 rmoveto
          -105 callsubr
          endchar
        </CharString>
        <CharString name="s0721">
          732 530 rmoveto
          -107 callsubr
          14.00586 110.00098 rmoveto
          -106 callsubr
          -668 -498.00098 rmoveto
          -105 callsubr
          endchar
        </CharString>
        <CharString name="s0722">
          732 530 rmoveto
          -107 callsubr
          14.00586 110.00098 rmoveto
          -106 callsubr
          -668 -498.00098 rmoveto
          -105 callsubr
          endchar
        </CharString>
        <CharString name="s0723">
          732 530 rmoveto
          -107 callsubr
          14.00586 110.00098 rmoveto
          -106 callsubr
          -668 -498.00098 rmoveto
          -105 callsubr
          endchar
        </CharString>
        <CharString name="s0724">
          732 530 rmoveto
          -107 callsubr
          14.00586 110.00098 rmoveto
          -106 callsubr
          -668 -498.00098 rmoveto
          -105 callsubr
          endchar
        </CharString>
        <CharString name="s0725">
          732 530 rmoveto
          -107 callsubr
          14.00586 110.00098 rmoveto
          -106 callsubr
          -668 -498.00098 rmoveto
          -105 callsubr
          endchar
        </CharString>
        <CharString name="s0726">
          732 530 rmoveto
          -107 callsubr
          14.00586 110.00098 rmoveto
          -106 callsubr
          -668 -498.00098 rmoveto
          -105 callsubr
          endchar
        </CharString>
        <CharString name="s0727">
          732 530 rmoveto
          -107 callsubr
          14.00586 110.00098 rmoveto
          -106 callsubr
          -668 -498.00098 rmoveto
          -105 callsubr
          endchar
        </CharString>
        <CharString name="s0728">
          732 530 rmoveto
          -107 callsubr
          14.00586 110.00098 rmoveto
          -106 callsubr
          -668 -498.00098 rmoveto
          -105 callsubr
          endchar
        </CharString>
        <CharString name="s0729">
          732 530 rmoveto
          -107 callsubr
          14.00586 110.00098 rmoveto
          -106 callsubr
          -668 -498.00098 rmoveto
          -105 callsubr
          endchar
        </CharString>
        <CharString name="s0730">
          732 530 rmoveto
          -107 callsubr
          14.00586 110.00098 rmoveto
          -106 callsubr
          -668 -498.00098 rmoveto
          -105 callsubr
          endchar
        </CharString>
        <CharString name="s0731">
          732 530 rmoveto
          -107 callsubr
          14.00586 110.00098 rmoveto
          -106 callsubr
          -668 -498.00098 rmoveto
          -105 callsubr
          endchar
        </CharString>
        <CharString name="s0732">
          732 530 rmoveto
          -107 callsubr
          14.00586 110.00098 rmoveto
          -106 callsubr
          -668 -498.00098 rmoveto
          -105 callsubr
          endchar
        </CharString>
        <CharString name="s0733">
          732 530 rmoveto
          -107 callsubr
          14.00586 110.00098 rmoveto
          -106 callsubr
          -668 -498.00098 rmoveto
          -105 callsubr
          endchar
        </CharString>
        <CharString name="s0734">
          732 530 rmoveto
          -107 callsubr
          14.00586 110.00098 rmoveto
          -106 callsubr
          -668 -498.00098 rmoveto
          -105 callsubr
          endchar
        </CharString>
        <CharString name="s0735">
          732 530 rmoveto
          -107 callsubr
          14.00586 110.00098 rmoveto
          -106 callsubr
          -668 -498.00098 rmoveto
          -105 callsubr
          endchar
        </CharString>
        <CharString name="s0736">
          732 530 rmoveto
          -107 callsubr
          14.00586 110.00098 rmoveto
          -106 callsubr
          -668 -498.00098 rmoveto
          -105 callsubr
          endchar
        </CharString>
        <CharString name="s0737">
          732 530 rmoveto
          -107 callsubr
          14.00586 110.00098 rmoveto
          -106 callsubr
          -668 -498.00098 rmoveto
          -105 callsubr
          endchar
        </CharString>
        <CharString name="s0738">
          732 530 rmoveto
          -107 callsubr
          14.00586 110.00098 rmoveto
          -106 callsubr
          -668 -498.00098 rmoveto
          -105 callsubr
          endchar
        </CharString>
        <CharString name="s0739">
          732 530 rmoveto
          -107 callsubr
          14.00586 110.00098 rmoveto
          -106 callsubr
          -668 -498.00098 rmoveto
          -105 callsubr
          endchar
        </CharString>
        <CharString name="s0740">
          732 530 rmoveto
          -107 callsubr
          14.00586 110.00098 rmoveto
          -106 callsubr
          -668 -498.00098 rmoveto
          -105 callsubr
          endchar
        </CharString>
        <CharString name="s0741">
          732 530 rmoveto
          -107 callsubr
          14.00586 110.00098 rmoveto
          -106 callsubr
          -668 -498.00098 rmoveto
          -105 callsubr
          endchar
        </CharString>
        <CharString name="s0742">
          732 530 rmoveto
          -107 callsubr
          14.00586 110.00098 rmoveto
          -106 callsubr
          -668 -498.00098 rmoveto
          -105 callsubr
          endchar
        </CharString>
        <CharString name="s0743">
          732 530 rmoveto
          -107 callsubr
          14.00586 110.00098 rmoveto
          -106 callsubr
          -668 -498.00098 rmoveto
          -105 callsubr
          endchar
        </CharString>
        <CharString name="s0744">
          732 530 rmoveto
          -107 callsubr
          14.00586 110.00098 rmoveto
          -106 callsubr
          -668 -498.00098 rmoveto
          -105 callsubr
          endchar
        </CharString>
        <CharString name="s0745">
          732 530 rmoveto
          -107 callsubr
          14.00586 110.00098 rmoveto
          -106 callsubr
          -668 -498.00098 rmoveto
          -105 callsubr
          endchar
        </CharString>
        <CharString name="s0746">
          732 530 rmoveto
          -107 callsubr
          14.00586 110.00098 rmoveto
          -106 callsubr
          -668 -498.00098 rmoveto
          -105 callsubr
          endchar
        </CharString>
        <CharString name="s0747">
          732 530 rmoveto
          -107 callsubr
          14.00586 110.00098 rmoveto
          -106 callsubr
          -668 -498.00098 rmoveto
          -105 callsubr
          endchar
        </CharString>
        <CharString name="s0748">
          732 530 rmoveto
          -107 callsubr
          14.00586 110.00098 rmoveto
          -106 callsubr
          -668 -498.00098 rmoveto
          -105 callsubr
          endchar
        </CharString>
        <CharString name="s0749">
          732 530 rmoveto
          -107 callsubr
          14.00586 110.00098 rmoveto
          -106 callsubr
          -668 -498.00098 rmoveto
          -105 callsubr
          endchar
        </CharString>
        <CharString name="s0750">
          732 530 rmoveto
          -107 callsubr
          14.00586 110.00098 rmoveto
          -106 callsubr
          -668 -498.00098 rmoveto
          -105 callsubr
          endchar
        </CharString>
        <CharString name="s0751">
          732 530 rmoveto
          -107 callsubr
          14.00586 110.00098 rmoveto
          -106 callsubr
          -668 -498.00098 rmoveto
          -105 callsubr
          endchar
        </CharString>
        <CharString name="s0752">
          732 530 rmoveto
          -107 callsubr
          14.00586 110.00098 rmoveto
          -106 callsubr
          -668 -498.00098 rmoveto
          -105 callsubr
          endchar
        </CharString>
        <CharString name="s0753">
          732 530 rmoveto
          -107 callsubr
          14.00586 110.00098 rmoveto
          -106 callsubr
          -668 -498.00098 rmoveto
          -105 callsubr
          endchar
        </CharString>
        <CharString name="s0754">
          732 530 rmoveto
          -107 callsubr
          14.00586 110.00098 rmoveto
          -106 callsubr
          -668 -498.00098 rmoveto
          -105 callsubr
          endchar
        </CharString>
        <CharString name="s0755">
          732 530 rmoveto
          -107 callsubr
          14.00586 110.00098 rmoveto
          -106 callsubr
          -668 -498.00098 rmoveto
          -105 callsubr
          endchar
        </CharString>
        <CharString name="s0756">
          732 530 rmoveto
          -107 callsubr
          14.00586 110.00098 rmoveto
          -106 callsubr
          -668 -498.00098 rmoveto
          -105 callsubr
          endchar
        </CharString>
        <CharString name="s0757">
          732 530 rmoveto
          -107 callsubr
          14.00586 110.00098 rmoveto
          -106 callsubr
          -668 -498.00098 rmoveto
          -105 callsubr
          endchar
        </CharString>
        <CharString name="s0758">
          732 530 rmoveto
          -107 callsubr
          14.00586 110.00098 rmoveto
          -106 callsubr
          -668 -498.00098 rmoveto
          -105 callsubr
          endchar
        </CharString>
        <CharString name="s0759">
          732 530 rmoveto
          -107 callsubr
          14.00586 110.00098 rmoveto
          -106 callsubr
          -668 -498.00098 rmoveto
          -105 callsubr
          endchar
        </CharString>
        <CharString name="s0760">
          732 530 rmoveto
          -107 callsubr
          14.00586 110.00098 rmoveto
          -106 callsubr
          -668 -498.00098 rmoveto
          -105 callsubr
          endchar
        </CharString>
        <CharString name="s0761">
          732 530 rmoveto
          -107 callsubr
          14.00586 110.00098 rmoveto
          -106 callsubr
          -668 -498.00098 rmoveto
          -105 callsubr
          endchar
        </CharString>
        <CharString name="s0762">
          732 530 rmoveto
          -107 callsubr
          14.00586 110.00098 rmoveto
          -106 callsubr
          -668 -498.00098 rmoveto
          -105 callsubr
          endchar
        </CharString>
        <CharString name="s0763">
          732 530 rmoveto
          -107 callsubr
          14.00586 110.00098 rmoveto
          -106 callsubr
          -668 -498.00098 rmoveto
          -105 callsubr
          endchar
        </CharString>
        <CharString name="s0764">
          732 530 rmoveto
          -107 callsubr
          14.00586 110.00098 rmoveto
          -106 callsubr
          -668 -498.00098 rmoveto
          -105 callsubr
          endchar
        </CharString>
        <CharString name="s0765">
          732 530 rmoveto
          -107 callsubr
          14.00586 110.00098 rmoveto
          -106 callsubr
          -668 -498.00098 rmoveto
          -105 callsubr
          endchar
        </CharString>
</ttFont>
